<svg width="248" height="248" viewBox="0 0 248 248" fill="none" xmlns="http://www.w3.org/2000/svg">
<path d="M123.962 247.691C192.128 247.691 247.389 192.407 247.389 124.211C247.389 56.0146 192.128 0.730469 123.962 0.730469C55.7946 0.730469 0.534424 56.0146 0.534424 124.211C0.534424 192.407 55.7946 247.691 123.962 247.691Z" fill="#DACBEF"/>
<path d="M187.067 107.586C187.474 107.699 187.873 107.85 188.264 108C188.4 108.053 188.543 108.113 188.678 108.166C188.633 108.151 188.076 107.902 188.49 108.091C188.844 108.249 189.197 108.407 189.551 108.565C190.966 109.213 192.358 109.905 193.743 110.613C196.174 111.855 198.68 113.098 200.945 114.626C201.051 114.694 201.201 114.852 201.314 114.882L200.885 114.551C201.028 114.671 201.179 114.792 201.314 114.92C201.457 115.048 201.593 115.176 201.728 115.311C201.713 115.296 202.285 115.989 202.022 115.643L202.157 115.884C202.074 115.673 202.082 115.718 202.172 116.027C202.225 115.612 202.029 116.087 202.135 116.064C202.18 115.756 202.165 115.756 202.097 116.064C202.217 115.801 202.21 115.816 202.067 116.087C201.818 116.697 202.21 115.974 201.969 116.26C201.826 116.426 201.675 116.584 201.517 116.734C201.517 116.734 200.855 117.269 201.216 117.005C201.073 117.111 200.915 117.216 200.765 117.314C199.786 117.947 198.71 118.443 197.664 118.948C193.54 120.936 189.288 122.652 185.148 124.618C180.384 126.876 175.816 129.534 171.872 133.08C170.548 134.27 171.052 136.356 172.407 137.237C175.748 139.398 179.835 140.022 183.696 139.142L181.656 134.308C179.918 135.392 178.021 135.399 176.283 134.33C175.169 133.645 173.633 133.984 172.873 135.015C172.045 136.122 172.203 137.463 173.076 138.486C175.252 141.031 178.51 142.447 181.837 142.5L181.137 137.304C181.619 137.229 180.625 137.304 180.52 137.304C179.873 137.335 180.806 137.425 180.174 137.274C179.873 137.207 179.572 137.131 179.278 137.026C179.105 136.958 179.112 136.966 179.293 137.048C179.135 136.973 178.977 136.898 178.819 136.807C178.586 136.679 178.36 136.536 178.142 136.386C178.458 136.619 177.75 135.994 177.675 135.927C177.321 135.603 177.705 136.07 177.427 135.633C177.231 135.332 177.065 135.031 176.915 134.707C176.313 133.412 174.446 133.08 173.295 133.758C171.97 134.534 171.737 136.077 172.346 137.38C174.145 141.235 178.473 143.064 182.537 142.409C183.816 142.206 184.606 140.678 184.433 139.503C184.238 138.2 183.176 137.229 181.837 137.207C181.543 137.207 181.257 137.199 180.964 137.161C181.348 137.207 180.512 137.063 180.52 137.063C179.985 136.935 179.511 136.785 179.24 136.642C178.157 136.1 177.645 135.708 176.817 134.744L173.611 138.901C176.847 140.888 181.092 140.888 184.32 138.878C186.887 137.274 185.216 133.374 182.281 134.044C179.827 134.601 177.306 134.12 175.071 132.674L175.605 136.83C182.725 130.415 192.546 127.381 201.164 123.119C203.309 122.058 205.597 120.77 206.748 118.556C208.118 115.921 207.169 113.09 205.047 111.193C202.925 109.295 200.185 108.03 197.694 106.72C196.031 105.847 194.353 105.004 192.652 104.206C191.297 103.573 189.912 102.88 188.46 102.481C185.171 101.585 183.771 106.69 187.052 107.586H187.067Z" fill="black"/>
<path d="M61.4351 102.399C58.5827 103.174 55.8131 104.77 53.1941 106.118C50.7632 107.368 48.2118 108.595 45.9841 110.191C43.7564 111.788 42.0254 114.077 42.5899 116.93C43.064 119.324 45.1262 121.086 47.1582 122.223C51.4706 124.64 56.1819 126.379 60.675 128.45C65.5368 130.686 70.4212 133.261 74.2896 136.747L74.8239 132.591C72.5812 134.044 70.0675 134.526 67.614 133.961C64.7089 133.299 62.9855 137.184 65.5744 138.795C68.8031 140.806 73.0478 140.813 76.284 138.818L73.0779 134.662C72.2651 135.61 71.7458 136.017 70.6545 136.559C70.2556 136.755 70.662 136.597 70.2105 136.74C69.932 136.823 69.6535 136.913 69.3751 136.981C68.7956 137.116 68.788 137.109 68.058 137.124C66.7485 137.146 65.612 138.118 65.4615 139.42C65.3185 140.602 66.041 142.108 67.3581 142.326C71.4146 142.981 75.7421 141.152 77.5484 137.297C78.1504 136.002 77.9096 134.443 76.6001 133.675C75.4561 133.005 73.5897 133.321 72.98 134.624C72.4382 135.791 72.0393 136.19 71.0835 136.725C71.0308 136.755 70.3459 137.056 70.7523 136.898C70.4212 137.026 70.075 137.109 69.7288 137.191C69.217 137.312 69.9471 137.244 69.3826 137.222C69.2772 137.222 68.2913 137.146 68.7655 137.222L68.0655 142.417C71.3921 142.364 74.6433 140.949 76.8258 138.404C77.6838 137.402 77.8946 136.009 77.0291 134.933C76.2313 133.931 74.7637 133.547 73.6198 134.248C71.8737 135.324 69.9771 135.294 68.2462 134.225L66.2066 139.059C70.0675 139.94 74.1541 139.315 77.4957 137.154C78.8504 136.273 79.3546 134.187 78.03 132.998C70.9932 126.658 62.0974 123.473 53.6532 119.535C52.7124 119.099 51.7792 118.647 50.8535 118.18C50.3492 117.932 49.8525 117.676 49.3709 117.382C48.7989 117.028 48.7913 117.036 48.3925 116.659C48.2344 116.508 48.0839 116.358 47.9409 116.185C47.7001 115.899 48.0839 116.621 47.8431 116.012L47.7302 115.793C47.8355 116.057 47.8431 116.042 47.7527 115.756L47.7753 115.989V115.748C47.7603 115.816 47.7452 115.884 47.7377 115.951C47.8355 115.643 47.8355 115.597 47.7527 115.808L47.8882 115.567C47.7377 115.718 47.7753 115.68 47.9861 115.439C48.114 115.296 48.2495 115.168 48.3849 115.033C48.5204 114.905 48.6634 114.777 48.8139 114.656C49.1676 114.363 49.0999 114.415 48.6032 114.807C48.8967 114.724 49.258 114.355 49.5214 114.197C50.0331 113.881 50.56 113.572 51.0793 113.271C52.3963 112.518 53.7284 111.803 55.0756 111.095C56.6711 110.259 58.2892 109.446 59.9224 108.686C60.261 108.527 60.6072 108.369 60.9459 108.219C61.1039 108.151 61.262 108.083 61.42 108.008C61.8867 107.797 60.8857 108.219 61.3749 108.023C61.8641 107.827 62.3382 107.631 62.8425 107.496C66.1238 106.6 64.7315 101.495 61.4351 102.391V102.399Z" fill="black"/>
<path d="M102.384 163.1C101.285 172.542 98.0567 181.607 94.9108 190.514C94.6098 191.357 94.256 192.411 93.955 193.149C93.5636 194.098 92.9014 195.31 92.4197 195.935C91.5467 197.049 90.2522 197.975 88.9201 198.548C89.2362 198.412 88.4384 198.728 88.4986 198.706C88.333 198.766 88.1675 198.819 87.9944 198.879C87.5729 199.015 87.1364 199.127 86.7074 199.225C86.4892 199.271 86.2709 199.316 86.0451 199.353C85.9398 199.376 85.3678 199.451 85.8118 199.399C85.3226 199.459 84.8259 199.489 84.3292 199.504C83.4712 199.527 82.6133 199.489 81.7628 199.383C82.2144 199.444 81.6424 199.361 81.5371 199.338C81.3188 199.301 81.1005 199.263 80.8823 199.21C80.6791 199.165 80.4759 199.112 80.2802 199.045C80.0996 198.984 80.1222 198.992 80.3329 199.075C80.0619 198.917 80.0544 198.909 80.2953 199.067L80.4608 199.346C80.6716 199.594 80.7318 199.888 80.6565 200.219C80.7092 200.377 80.4608 200.483 80.7468 200.189C81.1382 199.783 81.2661 199.692 81.8532 199.361C82.3725 199.075 82.3875 199.067 82.9971 198.894C83.2379 198.826 83.4788 198.759 83.7196 198.706C83.7045 198.706 84.5324 198.57 84.2013 198.608C86.7451 198.299 89.2663 199.022 91.6972 199.67L89.8533 197.825C89.7179 197.042 89.8985 196.44 90.4027 196.033C90.6586 195.943 90.6436 195.943 90.3425 196.04C90.0866 196.093 89.9512 196.123 89.477 196.184C88.5589 196.289 87.6407 196.379 86.7225 196.455C84.8184 196.598 82.9143 196.665 81.0102 196.65L83.6519 199.293C83.6594 199.474 83.6218 199.639 83.5315 199.79C83.3207 200.023 83.3132 200.039 83.5239 199.813C83.3057 199.963 83.2756 199.986 83.4336 199.888C83.5314 199.828 83.6293 199.767 83.7347 199.715C83.253 199.948 83.9981 199.67 84.126 199.647C84.3217 199.609 84.284 199.617 84.0206 199.662C84.1787 199.655 84.3367 199.655 84.4948 199.662C85.8871 199.73 87.5353 200.317 89.1007 200.114L88.4008 194.919C87.6256 195.099 86.4516 194.896 85.4958 194.776C84.3593 194.632 83.2605 194.617 82.1391 194.896C79.6932 195.498 78.0751 197.275 77.774 199.752C77.631 200.927 78.6997 201.974 79.7157 202.305C84.0959 203.728 89.0556 203.08 92.9315 200.596C94.7452 199.429 94.6249 196.289 92.2993 195.762C87.5805 194.693 83.0347 196.116 78.6471 197.78C77.4203 198.247 76.5473 199.301 76.7505 200.686C76.9462 201.966 78.0073 202.99 79.347 202.982C82.809 202.967 86.3688 203.186 89.8232 202.885C93.5637 202.561 96.7698 200.656 97.2891 196.688H91.9982C92.0359 196.116 91.9832 196.718 91.9456 196.861C92.0735 196.364 91.9455 196.816 91.8402 196.989C92.0283 196.688 91.9681 196.839 91.7649 197.027C91.5918 197.192 91.3961 197.29 91.6972 197.102C91.5015 197.223 91.3059 197.335 91.1026 197.448C90.5532 197.765 91.4789 197.381 90.8543 197.546C90.6586 197.599 90.4705 197.667 90.2748 197.712C90.192 197.735 89.4845 197.847 89.7856 197.817C90.1318 197.78 89.477 197.832 89.4093 197.832C89.1685 197.832 88.9351 197.832 88.6943 197.817C88.318 197.795 88.7094 197.847 88.2127 197.757C87.9492 197.712 87.6858 197.652 87.4299 197.591C86.2483 197.305 85.4205 196.936 84.3819 196.312L83.7497 201.145C85.6613 200.799 87.9267 201.13 89.7329 202.056V197.486C89.2889 197.825 88.8524 198.103 88.4761 198.194C87.889 198.329 87.7837 198.337 87.0612 198.262L87.7611 203.457C89.1986 203.178 90.636 202.9 92.0735 202.621L90.034 197.787C88.4685 198.676 86.9483 198.939 85.1044 198.766C83.682 198.631 82.4628 200.076 82.4628 201.409C82.4628 202.952 83.682 203.916 85.1044 204.052C87.746 204.3 90.4027 203.653 92.7057 202.35C93.8421 201.702 94.3087 200.227 93.7894 199.045C93.2325 197.78 91.9982 197.253 90.6661 197.516C89.2287 197.795 87.7912 198.073 86.3537 198.352C85.0818 198.6 84.2765 200.054 84.4572 201.258C84.6679 202.636 85.7065 203.419 87.0536 203.555C88.9126 203.743 90.9145 203.193 92.4046 202.056C93.1723 201.469 93.7142 200.791 93.7142 199.775C93.7142 198.887 93.2175 197.908 92.4046 197.494C89.2437 195.875 85.8269 195.416 82.3423 196.048C80.0093 196.477 79.8964 199.783 81.7102 200.882C84.5851 202.621 88.0922 203.562 91.4338 202.862C94.5496 202.214 97.0708 199.956 97.2815 196.68C97.3719 195.25 96.0021 194.038 94.6399 194.038C93.0594 194.038 92.1789 195.257 91.9982 196.68C92.0735 196.108 91.7574 197.072 91.9682 196.575C91.7875 197.012 92.0811 196.545 91.7349 196.869C91.5693 197.027 91.3209 197.207 90.9898 197.335C90.1619 197.659 88.9803 197.637 87.8589 197.644C85.0216 197.659 82.1843 197.667 79.347 197.682L80.0469 202.877C83.4562 201.582 87.2644 200.031 90.8919 200.859L90.2597 196.025C87.4299 197.847 84.2765 198.231 81.1231 197.207L83.0648 199.76C83.0799 199.933 83.0498 200.091 82.952 200.242C83.11 199.993 83.11 199.993 82.9369 200.249C83.1551 200.046 83.1627 200.046 82.9369 200.242C83.0724 200.159 83.2154 200.084 83.3584 200.016C82.8692 200.219 83.7873 199.941 83.9002 199.926C83.3358 200.008 84.2013 199.956 84.3292 199.956C86.2182 200.039 87.9041 200.46 89.8007 200.023C91.065 199.73 91.8853 198.367 91.6972 197.117C91.5241 195.958 90.4178 194.648 89.1007 194.821C86.9934 195.099 84.8711 194.06 82.6058 194.565C80.2351 195.092 78.6019 196.884 78.3686 199.293C78.2256 200.724 79.6932 201.936 81.0102 201.936C83.7798 201.951 86.5419 201.808 89.2964 201.492C90.6436 201.334 91.9907 201.243 93.1798 200.528C94.6851 199.632 95.2871 198.096 94.9635 196.409C94.7979 195.528 93.9475 194.783 93.1196 194.565C87.874 193.172 81.2586 192.012 77.029 196.439C75.9226 197.599 75.1775 199.12 75.5087 200.754C75.8624 202.47 77.187 203.555 78.7825 204.104C80.7995 204.797 83.1928 204.91 85.3151 204.737C90.2146 204.33 94.8882 202.147 97.5299 197.847C98.9899 195.468 99.7952 192.675 100.713 190.055C101.624 187.457 102.527 184.859 103.363 182.239C105.364 175.982 106.96 169.628 107.72 163.092C107.886 161.669 106.388 160.449 105.079 160.449C103.513 160.449 102.602 161.669 102.437 163.092L102.384 163.1Z" fill="black"/>
<path d="M142.054 162.949C142.731 168.769 144.056 174.446 145.764 180.041C146.607 182.789 147.525 185.507 148.466 188.218C149.407 190.928 150.212 193.458 151.341 195.965C153.373 200.49 157.558 203.51 162.419 204.323C164.873 204.729 167.289 204.714 169.742 204.262C172.572 203.735 175.199 201.552 174.092 198.397C172.986 195.242 169.486 193.729 166.551 193.3C163.187 192.803 159.898 193.556 156.647 194.422C155.812 194.64 154.969 195.393 154.803 196.266C154.487 197.93 155.051 199.391 156.489 200.325C157.686 201.1 159.093 201.191 160.47 201.349C163.217 201.665 165.987 201.808 168.756 201.793C170.081 201.793 171.541 200.581 171.398 199.15C171.165 196.748 169.532 194.956 167.161 194.422C164.79 193.887 162.781 194.956 160.666 194.678C159.379 194.505 158.205 195.815 158.069 196.974C157.919 198.224 158.664 199.572 159.966 199.88C161.862 200.325 163.548 199.895 165.437 199.813C165.565 199.813 166.431 199.865 165.866 199.783C165.972 199.798 166.897 200.076 166.408 199.873C166.551 199.941 166.694 200.016 166.83 200.099C166.611 199.903 166.619 199.911 166.83 200.106C166.664 199.85 166.657 199.843 166.815 200.099C166.724 199.948 166.687 199.79 166.702 199.617L168.643 197.064C165.49 198.088 162.337 197.704 159.507 195.882L158.875 200.716C162.495 199.895 166.303 201.439 169.72 202.734L170.42 197.539C167.582 197.524 164.745 197.516 161.908 197.501C160.749 197.501 159.725 197.539 158.732 197.17C158.988 197.26 158.348 196.974 158.34 196.974C157.776 196.673 158.483 197.162 158.024 196.733C157.708 196.432 157.972 196.861 157.791 196.44C157.979 196.869 157.693 196.003 157.761 196.545C157.573 195.129 156.677 193.902 155.119 193.902C153.757 193.902 152.38 195.114 152.478 196.545C152.688 199.82 155.209 202.079 158.325 202.727C161.659 203.419 165.174 202.478 168.049 200.746C169.855 199.655 169.75 196.334 167.417 195.912C163.932 195.272 160.523 195.739 157.354 197.358C156.542 197.772 156.045 198.751 156.045 199.639C156.045 200.663 156.587 201.341 157.354 201.921C158.845 203.058 160.839 203.607 162.705 203.419C164.015 203.291 165.136 202.516 165.302 201.123C165.445 199.911 164.715 198.472 163.405 198.216C161.968 197.938 160.53 197.659 159.093 197.381C157.806 197.132 156.489 197.637 155.97 198.909C155.488 200.106 155.887 201.552 157.053 202.215C159.356 203.517 162.013 204.165 164.655 203.916C166.077 203.781 167.296 202.794 167.296 201.273C167.296 199.948 166.085 198.495 164.655 198.631C162.803 198.804 161.291 198.54 159.725 197.652L157.686 202.486C159.123 202.764 160.56 203.043 161.998 203.321L162.698 198.126C162.389 198.156 162.088 198.179 161.78 198.164C162.043 198.179 161.298 198.066 161.275 198.058C160.877 197.96 160.478 197.704 160.019 197.351V201.921C161.817 201.002 164.09 200.663 166.002 201.01L165.37 196.176C164.376 196.778 163.601 197.125 162.48 197.418C161.96 197.554 161.403 197.659 161.057 197.682C160.862 197.697 160.658 197.697 160.463 197.697C160.38 197.697 159.665 197.644 159.973 197.682C160.312 197.72 159.672 197.622 159.605 197.607C159.364 197.554 159.138 197.471 158.905 197.411C158.393 197.283 159.146 197.592 158.656 197.313C158.491 197.215 158.325 197.117 158.16 197.027C157.911 196.891 158.4 197.305 158.077 196.967C157.972 196.854 157.64 196.387 157.926 196.854C157.821 196.68 157.686 196.221 157.821 196.726C157.783 196.568 157.731 195.965 157.768 196.552H152.478C152.997 200.513 156.195 202.425 159.943 202.749C163.398 203.05 166.958 202.832 170.42 202.847C171.722 202.847 172.866 201.838 173.016 200.551C173.182 199.165 172.384 198.126 171.12 197.644C166.732 195.973 162.186 194.55 157.467 195.626C155.142 196.153 155.014 199.293 156.835 200.46C160.703 202.952 165.671 203.592 170.051 202.169C171.052 201.846 172.136 200.784 171.993 199.617C171.691 197.132 170.073 195.37 167.627 194.76C166.566 194.497 165.513 194.489 164.436 194.617C163.435 194.738 162.186 194.971 161.366 194.783L160.666 199.978C162.231 200.182 163.872 199.594 165.272 199.527C165.445 199.519 165.987 199.549 165.52 199.481C165.656 199.504 166.514 199.813 166.032 199.572L166.235 199.685C166.491 199.85 166.499 199.85 166.243 199.677C166.453 199.895 166.446 199.888 166.235 199.655C166.145 199.504 166.1 199.338 166.115 199.158L168.756 196.515C166.852 196.522 164.941 196.462 163.044 196.319C162.126 196.251 161.208 196.161 160.29 196.048C159.815 195.995 159.672 195.958 159.424 195.905C159.123 195.807 159.108 195.8 159.364 195.897C159.868 196.312 160.049 196.906 159.913 197.689L158.069 199.534C160.229 198.962 162.412 198.352 164.67 198.412C166.213 198.457 167.951 198.939 169.012 200.046C169.486 200.535 169.065 200.189 169.103 200.076L169.118 199.783C169.088 199.451 169.2 199.165 169.471 198.924L169.644 198.811C169.404 198.939 169.358 198.969 169.516 198.902C169.87 198.819 169.072 199.022 169.118 199.015C168.696 199.128 168.252 199.203 167.823 199.263C168.245 199.203 167.793 199.263 167.725 199.271C167.409 199.301 167.101 199.331 166.785 199.346C164.79 199.444 163.736 199.346 161.893 198.781C160.485 198.352 159.108 197.592 158.099 196.613C157.813 196.342 157.543 196.048 157.294 195.739C157.618 196.146 156.993 195.295 157.008 195.318C156.888 195.137 156.775 194.949 156.67 194.76C156.12 193.819 155.766 192.946 155.405 191.96C153.749 187.45 152.176 182.894 150.784 178.301C149.264 173.287 147.969 168.167 147.367 162.957C147.202 161.534 146.269 160.314 144.726 160.314C143.424 160.314 141.918 161.534 142.084 162.957L142.054 162.949Z" fill="black"/>
<path d="M126.227 69.8344L142.4 46.2225C143.334 44.8597 145.471 45.5524 145.426 47.2088L144.635 75.8202C144.605 76.9872 145.749 77.823 146.848 77.4314L173.806 67.8391C175.364 67.2819 176.681 69.104 175.673 70.4141L158.22 93.0999C157.513 94.026 157.949 95.3738 159.063 95.705L186.51 103.792C188.098 104.258 188.098 106.51 186.51 106.976L159.063 115.063C157.942 115.394 157.505 116.742 158.22 117.668L175.673 140.354C176.681 141.664 175.364 143.486 173.806 142.929L146.848 133.336C145.749 132.945 144.605 133.781 144.635 134.948L145.426 163.559C145.471 165.216 143.334 165.908 142.4 164.545L126.227 140.934C125.564 139.97 124.15 139.97 123.495 140.934L107.321 164.545C106.388 165.908 104.251 165.216 104.296 163.559L105.086 134.948C105.116 133.781 103.972 132.945 102.874 133.336L75.9152 142.929C74.3573 143.486 73.0403 141.664 74.0488 140.354L91.5017 117.668C92.2091 116.742 91.7726 115.394 90.6588 115.063L63.2113 106.976C61.6233 106.51 61.6233 104.258 63.2113 103.792L90.6588 95.705C91.7801 95.3738 92.2166 94.026 91.5017 93.0999L74.0488 70.4141C73.0403 69.104 74.3573 67.2819 75.9152 67.8391L102.874 77.4314C103.972 77.823 105.116 76.9872 105.086 75.8202L104.296 47.2088C104.251 45.5524 106.388 44.8597 107.321 46.2225L123.495 69.8344C124.157 70.7981 125.572 70.7981 126.227 69.8344Z" fill="#F48E31" stroke="#F48E31" stroke-width="5.52" stroke-linejoin="round"/>
<path d="M137.772 115.387C140.856 115.387 143.356 110.384 143.356 104.213C143.356 98.0422 140.856 93.0397 137.772 93.0397C134.688 93.0397 132.188 98.0422 132.188 104.213C132.188 110.384 134.688 115.387 137.772 115.387Z" fill="white"/>
<path d="M113.086 115.974C116.17 115.974 118.671 110.971 118.671 104.8C118.671 98.6295 116.17 93.627 113.086 93.627C110.002 93.627 107.502 98.6295 107.502 104.8C107.502 110.971 110.002 115.974 113.086 115.974Z" fill="white"/>
<path d="M141.152 101.041C146.775 97.7936 149.952 92.767 148.247 89.814C146.543 86.861 140.604 87.0999 134.981 90.3475C129.358 93.5952 126.182 98.6218 127.886 101.575C129.59 104.528 135.53 104.289 141.152 101.041Z" fill="#F48E31"/>
</svg>
