<svg width="246" height="246" viewBox="0 0 246 246" fill="none" xmlns="http://www.w3.org/2000/svg">
<path d="M122.758 245.758C190.509 245.758 245.432 190.811 245.432 123.03C245.432 55.2497 190.509 0.302734 122.758 0.302734C55.0065 0.302734 0.083252 55.2497 0.083252 123.03C0.083252 190.811 55.0065 245.758 122.758 245.758Z" fill="#F48E31"/>
<path d="M95.3328 116.796C87.024 120.154 78.2562 123.738 69.3754 124.498C67.1252 124.687 64.8523 124.717 62.602 124.536C61.0291 124.408 59.0422 124.047 57.6724 123.264C57.4542 123.136 57.2359 123.008 57.0252 122.865C56.5059 122.511 56.8145 122.691 56.9048 122.774C56.6941 122.594 56.5134 122.39 56.3102 122.194C56.2726 122.157 55.9791 121.795 56.2124 122.104C55.9415 121.743 55.6931 121.329 55.52 120.914C55.5802 121.058 55.6254 121.283 55.5049 120.809C55.4372 120.546 55.3544 120.29 55.3168 120.026C55.3996 120.606 55.4899 119.055 55.3469 119.627C55.3921 119.454 55.4297 119.273 55.4899 119.107C55.3544 119.507 55.5576 118.979 55.6103 118.882C55.7232 118.686 55.8436 118.483 55.9791 118.302C55.7383 118.611 56.0393 118.249 56.0769 118.219C56.4909 117.827 56.8822 117.428 57.3262 117.075C57.2359 117.15 56.9951 117.315 57.4467 116.984C57.6649 116.826 57.9434 116.675 58.1315 116.487L58.3874 116.314C57.8907 116.487 57.4542 116.442 57.0628 116.179C56.7091 115.953 56.6715 115.96 56.9349 116.209C56.7768 115.998 56.7919 116.035 56.9951 116.314C57.2435 116.721 57.4843 117.12 57.6875 117.549C57.5144 117.172 57.7552 117.715 57.7853 117.812C57.8832 118.083 57.9584 118.355 58.0337 118.626C58.0939 118.859 58.1391 119.085 58.1917 119.318C58.3573 120.094 58.2143 118.919 58.2444 119.717C58.2595 120.244 58.2821 120.756 58.2444 121.276C58.2369 121.389 58.1391 121.976 58.2218 121.532C58.1692 121.81 58.109 122.089 58.0412 122.36C57.9961 122.541 57.9359 122.722 57.8757 122.902C57.8154 123.083 57.7552 123.256 57.68 123.437C57.7703 123.211 57.7402 123.256 57.6047 123.557L59.9754 122.194C59.7797 122.179 59.5916 122.157 59.3959 122.142C58.4777 122.059 59.6367 122.187 59.1175 122.112C58.7336 122.059 58.3498 121.984 57.966 121.908C57.108 121.735 56.2651 121.502 55.4447 121.201C55.3996 121.186 54.933 120.997 55.1061 121.073C55.2792 121.148 54.647 120.847 54.6545 120.854C54.3158 120.681 53.9847 120.493 53.6611 120.29C53.503 120.192 53.345 120.079 53.1869 119.973C52.472 119.469 53.3299 120.116 52.9611 119.785C52.6451 119.507 52.3515 119.213 52.0655 118.897C51.9301 118.754 51.8623 118.618 52.0204 118.851C51.9226 118.708 51.8247 118.565 51.7344 118.422C51.6215 118.242 51.5161 118.053 51.4183 117.858C51.3957 117.812 51.1925 117.346 51.2904 117.594C51.3882 117.843 51.2151 117.361 51.2001 117.315C51.1323 117.112 51.0721 116.901 51.027 116.698C50.9893 116.532 50.9517 116.367 50.9216 116.194C50.9743 116.472 50.9291 116.412 50.9216 116.164C50.9065 115.78 50.9065 115.411 50.9216 115.027C50.9442 114.605 50.8313 115.426 50.9216 115.019C50.9667 114.816 51.0044 114.62 51.0646 114.417C51.1097 114.259 51.1624 114.1 51.2226 113.95C51.1097 114.213 51.1323 114.123 51.2603 113.942C51.2979 113.89 51.6441 113.34 51.4559 113.604C51.2753 113.852 51.7344 113.31 51.7344 113.31L47.422 109.982C45.0588 114.281 46.4285 119.507 50.2894 122.368L50.9442 117.346C50.3797 117.519 49.8153 117.662 49.2282 117.752C49.0326 117.782 49.0476 117.782 49.2884 117.745C49.153 117.76 49.0175 117.767 48.882 117.775C48.6111 117.79 48.3402 117.805 48.0692 117.805C47.7531 117.805 47.437 117.79 47.1209 117.767C47.008 117.76 46.2479 117.647 46.7747 117.737C46.2404 117.647 45.706 117.526 45.1867 117.376C44.1632 117.075 43.7267 116.894 42.6354 116.201C42.4096 116.058 42.1839 115.908 41.9656 115.742C42.3419 116.013 41.7473 115.554 41.6721 115.493C41.1904 115.072 40.7614 114.612 40.355 114.131C39.3992 112.994 37.45 113.144 36.4716 114.131C35.3427 115.26 35.5158 116.879 36.4716 118.016C40.2497 122.533 46.8199 124.378 52.4193 122.646C53.4654 122.322 54.2556 121.457 54.3911 120.357C54.5341 119.183 54.0073 118.302 53.0816 117.617C53.503 117.933 52.7655 117.278 52.6902 117.21C52.487 116.969 52.472 116.954 52.6451 117.18C52.5472 117.044 52.4569 116.901 52.3666 116.758C52.3064 116.66 51.9075 115.764 52.0957 116.276C51.9752 115.953 51.9075 115.629 51.8097 115.305C51.7495 114.981 51.7419 114.974 51.7871 115.283C51.772 115.117 51.757 114.944 51.7495 114.778C51.7344 114.439 51.7495 114.1 51.7871 113.769C51.7043 114.387 51.9226 113.378 51.9527 113.265C52.0655 112.964 52.0655 112.948 51.9527 113.212C52.0279 113.061 52.1032 112.911 52.186 112.76C53.6611 110.08 50.0937 107.121 47.8735 109.432C44.6674 112.768 44.7653 118.196 47.4446 121.826C50.3948 125.831 55.2566 127.254 60.0055 127.683C60.8936 127.766 61.9849 127.119 62.3762 126.321C63.603 123.813 64.0169 121.163 63.6105 118.407C63.2568 116.005 62.0752 112.903 59.9378 111.525C57.251 109.801 54.2933 112.211 52.4193 114.123C50.3948 116.201 49.4841 118.889 50.0937 121.743C51.3054 127.42 57.2058 129.536 62.316 129.995C67.9681 130.507 73.7255 129.694 79.1969 128.293C85.2403 126.742 91.0429 124.423 96.8154 122.089C98.1927 121.532 99.1635 120.259 98.7345 118.708C98.3733 117.406 96.7401 116.231 95.3553 116.788L95.3328 116.796Z" fill="black"/>
<path d="M136.207 150.384C136.907 156.4 138.269 162.273 140.038 168.055C140.865 170.774 141.776 173.477 142.709 176.165C143.643 178.853 144.583 181.827 145.795 184.537C147.872 189.213 152.034 192.383 157.054 193.324C159.62 193.806 162.157 193.798 164.73 193.361C166.04 193.143 167.395 192.744 168.388 191.81C169.653 190.621 170.074 188.866 169.502 187.225C168.403 184.085 164.678 182.361 161.607 181.917C158.13 181.412 154.736 182.196 151.387 183.092C150.514 183.325 149.656 184.1 149.468 185.011C149.114 186.743 149.761 188.37 151.312 189.288C152.546 190.018 153.908 190.124 155.308 190.282C158.183 190.613 161.073 190.764 163.963 190.749C165.34 190.749 166.853 189.491 166.71 188.001C166.469 185.493 164.798 183.709 162.36 183.107C159.921 182.504 157.769 183.649 155.556 183.355C154.224 183.182 152.997 184.537 152.854 185.742C152.696 187.044 153.472 188.445 154.826 188.761C156.866 189.235 158.657 188.716 160.681 188.686C160.84 188.686 160.998 188.686 161.156 188.693C160.824 188.633 160.824 188.633 161.156 188.693C161.299 188.731 162.157 189.085 161.645 188.806C161.788 188.874 161.923 188.957 162.051 189.04C161.803 188.836 161.795 188.836 162.014 189.04C161.825 188.761 161.81 188.754 161.968 189.01C161.863 188.844 161.818 188.671 161.833 188.475L163.85 185.825C162.164 186.374 160.644 186.555 158.973 186.344C157.302 186.133 155.827 185.546 154.36 184.597L153.705 189.619C155.413 189.228 157.265 189.371 159.003 189.77C161.043 190.237 163.015 190.975 164.964 191.713L165.694 186.314C162.811 186.299 159.921 186.291 157.039 186.276C155.775 186.276 154.646 186.306 153.562 185.93C153.825 186.02 153.17 185.727 153.155 185.719C152.719 185.486 153.216 185.832 152.832 185.471L152.644 185.267C152.764 185.433 152.772 185.433 152.666 185.275C152.576 185.102 152.568 185.124 152.644 185.328C152.568 185.004 152.538 184.981 152.561 185.267C152.365 183.799 151.439 182.519 149.814 182.519C148.399 182.519 146.977 183.777 147.067 185.267C147.278 188.626 149.852 190.96 153.035 191.667C156.527 192.443 160.23 191.449 163.24 189.627C165.122 188.49 165.009 185.049 162.586 184.605C158.966 183.942 155.421 184.424 152.132 186.103C151.281 186.54 150.77 187.549 150.77 188.475C150.77 189.537 151.334 190.237 152.132 190.847C153.675 192.029 155.759 192.601 157.686 192.405C159.041 192.27 160.215 191.464 160.388 190.018C160.538 188.753 159.778 187.263 158.416 186.999C156.926 186.713 155.428 186.419 153.938 186.133C152.599 185.877 151.229 186.397 150.694 187.722C150.198 188.964 150.604 190.463 151.816 191.155C154.202 192.511 156.971 193.181 159.711 192.925C161.186 192.782 162.458 191.765 162.458 190.177C162.458 188.799 161.193 187.285 159.711 187.428C157.761 187.617 156.196 187.323 154.585 186.412L152.471 191.434C153.961 191.72 155.458 192.014 156.949 192.3L157.679 186.901C157.378 186.931 157.092 186.939 156.791 186.939C156.444 186.916 156.399 186.909 156.64 186.939C156.497 186.909 156.346 186.879 156.211 186.834C155.79 186.713 155.466 186.532 154.901 186.096V190.839C156.753 189.89 159.184 189.537 161.118 189.89L160.463 184.868C159.342 185.546 158.431 185.938 157.137 186.239C156.625 186.359 156.271 186.419 155.88 186.435C155.647 186.442 155.413 186.45 155.18 186.435C155.097 186.435 154.36 186.344 154.713 186.404C155.09 186.465 154.442 186.337 154.375 186.322C154.141 186.269 153.916 186.186 153.69 186.126C153.05 185.953 154.051 186.374 153.487 186.043C153.291 185.93 153.095 185.817 152.9 185.704C152.343 185.373 153.208 186.043 152.779 185.584C152.403 185.185 152.945 186.005 152.681 185.486C152.614 185.35 152.29 185.057 152.546 185.252C152.629 185.448 152.636 185.426 152.546 185.177C152.576 185.554 152.583 185.576 152.561 185.252H147.067C147.616 189.439 151.041 191.411 154.992 191.697C158.537 191.953 162.157 191.773 165.709 191.788C167.064 191.788 168.245 190.741 168.411 189.401C168.584 187.963 167.756 186.886 166.439 186.382C161.878 184.65 157.152 183.167 152.252 184.281C149.836 184.831 149.709 188.091 151.598 189.303C155.616 191.893 160.779 192.563 165.325 191.08C166.364 190.741 167.485 189.642 167.342 188.43C167.041 185.87 165.37 184.048 162.864 183.393C161.81 183.122 160.734 183.091 159.665 183.212C158.597 183.332 157.212 183.611 156.301 183.4L155.571 188.799C157.25 189.017 158.958 188.37 160.471 188.332C160.659 188.332 161.381 188.482 160.802 188.332C160.9 188.362 161.682 188.513 161.374 188.49C161.193 188.415 161.216 188.437 161.457 188.565C161.208 188.347 161.201 188.347 161.427 188.55C161.238 188.264 161.223 188.249 161.381 188.505C161.269 188.339 161.223 188.151 161.231 187.955L163.978 185.207C161.946 185.215 159.921 185.147 157.897 184.989C156.918 184.914 155.933 184.816 154.962 184.695C154.886 184.688 154.322 184.597 154.48 184.635C154.668 184.68 154.247 184.567 154.209 184.552C153.878 184.454 154.465 184.771 154.209 184.552C154.074 184.469 154.074 184.477 154.217 184.575C154.766 184.944 154.962 185.561 154.789 186.427L152.869 188.347C155.165 187.737 157.378 187.12 159.711 187.18C161.306 187.225 163.15 187.76 164.234 188.882C164.723 189.386 164.286 189.032 164.324 188.912L164.339 188.603C164.302 188.257 164.429 187.963 164.7 187.707L164.881 187.586C164.603 187.737 164.587 187.752 164.836 187.647C164.678 187.714 164.497 187.76 164.332 187.797C163.903 187.91 163.459 187.986 163.022 188.053C163.594 187.963 162.714 188.083 162.676 188.091C162.405 188.114 162.134 188.136 161.863 188.151C160.952 188.196 160.049 188.159 159.146 188.076C158.243 187.993 159.65 188.196 158.8 188.023C158.627 187.986 158.446 187.963 158.266 187.925C157.739 187.82 157.219 187.684 156.708 187.519C156.497 187.451 156.286 187.383 156.076 187.3C155.97 187.263 155.436 187.044 155.872 187.233C155.466 187.059 155.075 186.856 154.691 186.638C154.307 186.419 153.946 186.186 153.584 185.93C153.961 186.194 153.509 185.87 153.419 185.794C153.186 185.599 152.96 185.388 152.742 185.17C152.583 185.011 152.433 184.853 152.29 184.688C152.215 184.605 151.861 184.161 152.132 184.522C151.808 184.1 151.53 183.634 151.266 183.167C150.687 182.128 150.408 181.39 150.002 180.268C148.316 175.622 146.683 170.947 145.253 166.211C143.688 161.038 142.333 155.625 141.723 150.347C141.55 148.871 140.579 147.598 138.976 147.598C137.622 147.598 136.056 148.863 136.229 150.347L136.207 150.384Z" fill="black"/>
<path d="M150.469 122.119C160.787 126.29 171.587 130.537 182.913 130.153C188.024 129.98 194.044 128.835 196.483 123.715C197.687 121.178 197.77 118.181 196.174 115.78C195.519 114.793 194.722 113.95 193.811 113.212C192.569 112.196 191.109 110.878 189.401 110.916C186.232 110.976 184.396 114.929 183.824 117.594C183.177 120.598 183.561 123.595 184.908 126.351C185.299 127.141 186.39 127.789 187.278 127.713C192.012 127.284 196.897 125.861 199.839 121.856C202.511 118.212 202.624 112.798 199.41 109.462C197.213 107.181 193.608 110.087 195.098 112.79C195.181 112.933 195.264 113.084 195.331 113.242C195.218 112.971 195.218 112.994 195.331 113.295C195.361 113.408 195.58 114.417 195.497 113.799C195.542 114.131 195.55 114.477 195.535 114.808C195.535 114.974 195.519 115.147 195.497 115.313C195.535 115.004 195.527 115.012 195.474 115.335C195.376 115.659 195.309 115.99 195.188 116.307C195.376 115.795 194.978 116.691 194.917 116.788C194.827 116.932 194.737 117.075 194.639 117.21C194.812 116.992 194.797 116.999 194.594 117.24C194.519 117.316 193.781 117.963 194.202 117.647C193.299 118.317 192.712 119.205 192.893 120.387C193.058 121.487 193.788 122.345 194.865 122.676C200.464 124.408 207.034 122.563 210.812 118.046C211.761 116.909 211.926 115.275 210.812 114.161C209.834 113.182 207.885 113.016 206.929 114.161C205.499 115.87 203.949 116.856 202.09 117.406C201.57 117.556 201.036 117.677 200.502 117.767C201.029 117.677 200.186 117.797 200.156 117.797C199.885 117.82 199.614 117.828 199.343 117.835C199.072 117.843 198.801 117.835 198.53 117.82C198.425 117.82 197.695 117.745 198.184 117.812C197.559 117.73 196.934 117.572 196.332 117.383L196.987 122.405C200.855 119.537 202.218 114.319 199.854 110.02L195.542 113.348C195.655 113.468 195.775 113.589 195.881 113.717C195.572 113.34 195.896 113.777 195.948 113.867C195.971 113.912 196.212 114.356 196.084 114.085C195.956 113.814 196.152 114.274 196.167 114.326C196.219 114.492 196.393 115.478 196.34 114.929C196.377 115.305 196.377 115.682 196.355 116.058C196.355 116.111 196.295 116.63 196.34 116.329C196.393 115.99 196.242 116.728 196.25 116.721C196.167 117.06 196.061 117.383 195.948 117.707C196.046 117.436 196.009 117.587 195.918 117.76C195.821 117.948 195.723 118.144 195.61 118.324C195.519 118.475 195.429 118.618 195.331 118.761C195.09 119.13 195.738 118.347 195.218 118.912C194.963 119.19 194.699 119.446 194.428 119.702L194.21 119.891C194.36 119.785 194.353 119.793 194.21 119.898C194.059 120.011 193.901 120.116 193.743 120.222C193.382 120.455 193.013 120.666 192.629 120.862C192.456 120.945 192.283 121.027 192.11 121.11C192.374 120.99 192.065 121.125 191.967 121.163C191.147 121.457 190.311 121.705 189.453 121.886C189.07 121.969 188.686 122.036 188.302 122.097C187.85 122.172 188.287 122.104 188.024 122.134C187.783 122.157 187.542 122.187 187.301 122.202L189.672 123.565C189.28 122.774 189.785 124.009 189.499 123.181C189.438 123 189.378 122.827 189.318 122.639C189.258 122.451 189.213 122.277 189.175 122.089C189.175 122.082 189.002 121.171 189.077 121.705C189.025 121.329 189.009 120.952 189.009 120.568C189.009 120.282 189.032 120.003 189.04 119.717C189.062 119.16 188.964 119.913 189.092 119.318C189.183 118.897 189.273 118.49 189.408 118.083C189.484 117.858 189.551 117.632 189.649 117.413C189.499 117.767 189.694 117.338 189.724 117.293C189.958 116.879 190.168 116.457 190.454 116.081C190.199 116.412 190.47 116.058 190.522 116.028C190.048 116.397 189.506 116.495 188.897 116.322L189.152 116.495C189.341 116.683 189.619 116.834 189.837 116.992C189.875 117.014 190.236 117.308 189.958 117.082C190.327 117.376 190.68 117.692 191.011 118.023C191.493 118.52 191.787 118.972 191.945 119.635C191.809 119.055 191.899 120.636 191.975 120.034C191.93 120.387 191.824 120.741 191.704 121.08C191.877 120.598 191.538 121.389 191.523 121.419C191.433 121.577 191.335 121.735 191.237 121.893C190.951 122.353 191.087 122.097 191.169 121.999C190.966 122.247 190.733 122.473 190.5 122.691C190.131 123.038 191.057 122.353 190.274 122.872C190.108 122.985 189.935 123.098 189.762 123.196C189.544 123.324 189.318 123.444 189.092 123.55C188.603 123.791 189.664 123.362 188.776 123.693C187.813 124.047 186.819 124.28 185.803 124.431C186.18 124.37 185.547 124.461 185.465 124.468C185.209 124.498 184.953 124.521 184.697 124.536C184.178 124.581 183.651 124.611 183.124 124.626C181.965 124.672 180.806 124.664 179.647 124.611C175.207 124.408 170.864 123.452 166.529 122.149C161.57 120.659 156.753 118.731 151.959 116.796C150.581 116.239 148.941 117.398 148.58 118.716C148.151 120.29 149.114 121.539 150.499 122.097L150.469 122.119Z" fill="black"/>
<path d="M105.372 151.152C104.251 160.805 100.91 170.292 97.6583 179.492C96.9057 181.623 96.3487 183.506 94.9715 185.328C95.2424 184.974 94.8887 185.418 94.8134 185.493C94.6704 185.659 94.5199 185.817 94.3619 185.975C94.0533 186.284 93.7297 186.585 93.3835 186.849C93.7523 186.57 93.2932 186.894 93.1953 186.962C93.0147 187.082 92.8266 187.202 92.6384 187.315C92.1868 187.586 91.7127 187.835 91.231 188.038C91.6374 187.865 91.2235 188.038 91.1482 188.061C90.8924 188.151 90.644 188.241 90.3881 188.324C89.9591 188.46 89.5302 188.573 89.0936 188.671C88.9205 188.708 88.7399 188.746 88.5668 188.776C88.5292 188.776 87.6486 188.912 88.2281 188.844C87.6863 188.912 87.1444 188.949 86.6025 188.964C85.6994 188.987 84.7812 188.949 83.8856 188.836C84.3522 188.897 83.8856 188.836 83.8104 188.814C83.5469 188.761 83.2835 188.723 83.0201 188.663C82.8545 188.625 82.689 188.573 82.5159 188.535C82.2073 188.43 82.1847 188.422 82.4406 188.52C82.1622 188.354 82.1471 188.347 82.3955 188.513L82.5686 188.806C82.7868 189.062 82.8545 189.363 82.7718 189.717C82.7718 189.8 82.7341 189.868 82.6589 189.905C82.7567 189.793 82.8546 189.687 82.9674 189.582C83.2835 189.273 83.404 189.168 83.9308 188.866C84.4576 188.565 84.5028 188.543 85.1726 188.339C85.4586 188.257 85.7446 188.181 86.0381 188.121C86.1209 188.106 86.9111 187.993 86.4896 188.038C89.1538 187.752 91.6374 188.452 94.2264 189.145L92.3073 187.225C92.2169 186.766 92.6836 185.614 92.9921 185.29C92.8341 185.456 92.7287 185.403 93.0072 185.313C92.8567 185.365 92.7061 185.403 92.5481 185.433C92.8717 185.358 92.4126 185.456 92.3223 185.471C91.2837 185.606 90.2451 185.704 89.199 185.787C87.1745 185.945 85.1425 186.013 83.118 186.005L85.865 188.753C85.8725 188.957 85.8273 189.138 85.7144 189.303C85.8725 189.047 85.8574 189.062 85.6693 189.348C85.8951 189.145 85.88 189.153 85.6392 189.363L85.8349 189.25C85.5263 189.363 85.5263 189.363 85.8349 189.25C85.9854 189.198 86.1434 189.16 86.3015 189.13C85.722 189.281 86.4445 189.13 86.6326 189.13C88.1454 189.168 89.8538 189.823 91.5321 189.597L90.802 184.198C89.9366 184.402 88.6647 184.153 87.611 184.033C86.4746 183.897 85.3532 183.905 84.2393 184.191C81.7257 184.846 80.0624 186.66 79.7613 189.228C79.6184 190.448 80.7247 191.532 81.7783 191.878C86.3241 193.354 91.4869 192.684 95.5058 190.101C97.3873 188.889 97.2594 185.629 94.8511 185.079C89.9516 183.965 85.2253 185.448 80.6645 187.18C79.3851 187.662 78.4819 188.761 78.6926 190.199C78.8959 191.532 79.9947 192.586 81.3945 192.586C84.9468 192.571 88.5668 192.752 92.1116 192.496C96.0628 192.209 99.4871 190.237 100.037 186.05H94.5425C94.5049 186.713 94.6479 185.614 94.4973 186.178C94.6403 185.629 94.5199 186.088 94.4221 186.284C94.1361 186.841 94.7532 185.923 94.3242 186.382C93.9479 186.773 94.7231 186.194 94.2038 186.502C94.0081 186.615 93.8125 186.728 93.6168 186.841C93.1803 187.097 93.8275 186.788 93.5265 186.886C93.3007 186.954 93.0749 187.037 92.8491 187.097C92.7663 187.12 92.0363 187.263 92.39 187.21C92.7663 187.15 92.1191 187.233 92.0439 187.233C91.8105 187.248 91.5697 187.248 91.3364 187.233C90.8171 187.21 90.5612 187.165 89.9667 187.029C88.6797 186.728 87.754 186.337 86.6401 185.659L85.9854 190.681C87.9121 190.327 90.358 190.681 92.2019 191.63V186.886C91.6374 187.315 91.3439 187.496 90.8924 187.624C90.7494 187.669 90.6064 187.699 90.4634 187.73C90.6515 187.714 90.6591 187.714 90.4634 187.73C90.1172 187.752 89.771 187.73 89.4248 187.699L90.1548 193.098C91.645 192.812 93.1427 192.518 94.6328 192.232L92.518 187.21C90.8999 188.129 89.3345 188.415 87.3928 188.226C85.9101 188.083 84.6458 189.589 84.6458 190.975C84.6458 192.578 85.9101 193.58 87.3928 193.723C90.1398 193.986 92.9018 193.309 95.2876 191.953C96.4692 191.283 96.9508 189.747 96.409 188.52C95.8295 187.21 94.55 186.66 93.1652 186.931C91.6751 187.218 90.1774 187.511 88.6872 187.797C87.3626 188.053 86.5273 189.559 86.7154 190.817C86.9337 192.255 88.0174 193.06 89.4173 193.203C91.3439 193.399 93.4286 192.827 94.9715 191.645C95.7692 191.035 96.3337 190.335 96.3337 189.273C96.3337 188.347 95.8219 187.33 94.9715 186.901C91.6826 185.222 88.1454 184.74 84.5178 185.403C82.0944 185.847 81.974 189.288 83.863 190.425C86.8735 192.247 90.5763 193.241 94.0684 192.465C97.2519 191.758 99.8258 189.424 100.037 186.066C100.127 184.582 98.7119 183.317 97.2895 183.317C95.6413 183.317 94.7382 184.59 94.5425 186.066C94.6178 185.501 94.3242 186.412 94.5124 185.96C94.3167 186.412 94.6328 185.922 94.2716 186.269C93.8049 186.706 94.5199 186.224 93.9479 186.517C93.8802 186.555 93.248 186.826 93.5415 186.728C92.4502 187.112 91.3289 187.067 90.0645 187.074C87.182 187.09 84.292 187.097 81.4096 187.112L82.1396 192.511C84.0963 191.765 86.0606 191.035 88.1002 190.568C89.8387 190.169 91.6901 190.026 93.3985 190.417L92.7438 185.395C91.2687 186.344 89.7559 186.939 88.1303 187.142C86.5047 187.346 84.9242 187.172 83.2534 186.623L85.2704 189.273C85.2855 189.469 85.2403 189.642 85.1349 189.808C85.293 189.552 85.2855 189.559 85.0898 189.838C85.3156 189.634 85.3005 189.627 85.0522 189.838C85.1801 189.755 85.3156 189.672 85.4586 189.604C84.9468 189.883 85.8048 189.529 85.9478 189.491C86.2714 189.431 86.2714 189.431 85.9478 189.491C86.1058 189.484 86.2638 189.476 86.4219 189.484C88.4464 189.514 90.2376 190.033 92.2772 189.559C93.5942 189.25 94.4371 187.835 94.249 186.54C94.0683 185.335 92.9244 183.972 91.5471 184.153C89.3345 184.447 87.1068 183.332 84.7436 183.905C82.3804 184.477 80.6344 186.306 80.3935 188.799C80.2505 190.282 81.7708 191.539 83.1405 191.547C86.0305 191.562 88.9205 191.411 91.7955 191.08C93.1803 190.922 94.5726 190.832 95.7918 190.086C97.3271 189.145 97.9894 187.564 97.6357 185.81C97.4475 184.899 96.5896 184.123 95.7166 183.89C90.2602 182.436 83.3964 181.232 79.0012 185.84C77.7971 187.105 76.9842 188.829 77.4734 190.606C77.9175 192.24 79.2947 193.271 80.8225 193.798C83.0276 194.551 85.6693 194.664 87.9723 194.423C93.0373 193.888 97.7862 191.585 100.428 187.067C101.888 184.575 102.723 181.699 103.679 178.98C104.635 176.262 105.553 173.605 106.419 170.894C108.473 164.456 110.106 157.914 110.889 151.19C111.062 149.714 109.504 148.442 108.142 148.442C106.516 148.442 105.568 149.707 105.395 151.19L105.372 151.152Z" fill="black"/>
<path d="M127.996 67.8631L135.123 57.4576C138.081 53.1358 144.846 55.3343 144.703 60.5672L144.357 73.1712C144.252 76.8606 147.887 79.5034 151.364 78.261L163.24 74.0371C168.17 72.2828 172.354 78.0352 169.163 82.1913L161.472 92.1827C159.221 95.1041 160.606 99.3807 164.151 100.42L176.245 103.981C181.265 105.464 181.265 112.58 176.245 114.055L164.151 117.617C160.614 118.663 159.221 122.932 161.472 125.854L169.163 135.845C172.354 139.994 168.177 145.754 163.24 143.999L151.364 139.775C147.887 138.541 144.252 141.176 144.357 144.865L144.703 157.469C144.846 162.702 138.081 164.901 135.123 160.579L127.996 150.173C125.911 147.132 121.418 147.132 119.333 150.173L112.206 160.579C109.248 164.901 102.482 162.702 102.625 157.469L102.972 144.865C103.077 141.176 99.4419 138.533 95.9648 139.775L84.0888 143.999C79.1592 145.754 74.9747 140.001 78.1658 135.845L85.8574 125.854C88.1077 122.932 86.7229 118.656 83.1781 117.617L71.0838 114.055C66.0639 112.572 66.0639 105.457 71.0838 103.981L83.1781 100.42C86.7153 99.3732 88.1077 95.1041 85.8574 92.1827L78.1658 82.1913C74.9747 78.0427 79.1517 72.2828 84.0888 74.0371L95.9648 78.261C99.4419 79.4959 103.077 76.8606 102.972 73.1712L102.625 60.5672C102.482 55.3343 109.248 53.1358 112.206 57.4576L119.333 67.8631C121.418 70.9049 125.911 70.9049 127.996 67.8631Z" fill="#DACBEF" stroke="#DACBEF" stroke-width="5.74" stroke-linejoin="round"/>
<path d="M111.627 120.636C114.831 120.636 117.429 115.438 117.429 109.026C117.429 102.614 114.831 97.4155 111.627 97.4155C108.422 97.4155 105.824 102.614 105.824 109.026C105.824 115.438 108.422 120.636 111.627 120.636Z" fill="white"/>
<path d="M137.275 120.636C140.48 120.636 143.078 115.438 143.078 109.026C143.078 102.614 140.48 97.4155 137.275 97.4155C134.071 97.4155 131.473 102.614 131.473 109.026C131.473 115.438 134.071 120.636 137.275 120.636Z" fill="white"/>
</svg>
