<svg width="162" height="123" viewBox="0 0 162 123" fill="none" xmlns="http://www.w3.org/2000/svg">
<path fill-rule="evenodd" clip-rule="evenodd" d="M161.662 5.03834C161.664 5.05034 161.664 5.06244 161.662 5.07444C161.63 5.14681 161.605 5.21564 161.569 5.28801L118.743 102.24C118.683 102.773 118.493 103.283 118.189 103.724C117.885 104.165 117.478 104.524 117.003 104.769C116.528 105.014 116.001 105.137 115.467 105.128C114.933 105.118 114.41 104.976 113.944 104.715L88.152 93.704L56.7325 121.761C56.668 121.853 56.5984 121.941 56.5238 122.025L56.4697 122.076C56.0836 122.404 55.6353 122.65 55.1519 122.8L54.9216 122.879C54.8496 122.879 54.7919 122.934 54.7199 122.944C54.6252 122.95 54.5303 122.95 54.4356 122.944C53.876 123.046 53.3001 123.008 52.7589 122.832C52.2177 122.657 51.7279 122.35 51.333 121.939C50.9381 121.527 50.6502 121.025 50.4949 120.475C50.3396 119.925 50.3218 119.345 50.4428 118.787L43.7717 75.0257L2.25699 57.603C1.37167 57.2452 0.66386 56.5487 0.289192 55.6667C-0.0854769 54.7847 -0.096543 53.7892 0.258647 52.8991C0.469775 52.3858 0.798331 51.9297 1.21738 51.5676C1.63644 51.2055 2.13438 50.9477 2.67098 50.8149C2.6858 50.8051 2.70147 50.7966 2.71779 50.7896L157.331 0.131695C157.694 0.0272291 158.071 -0.0155897 158.447 0.00503732C159.043 -0.00283862 159.63 0.141774 160.154 0.425206C160.679 0.708638 161.123 1.12155 161.444 1.62509C161.766 2.12862 161.955 2.70619 161.993 3.30333C162.031 3.90047 161.917 4.4976 161.662 5.03834ZM80.811 90.5958L73.7654 87.5853L65.6216 104.158L80.811 90.5958ZM13.9866 54.7156L45.9497 68.1326L127.82 17.4169L13.9866 54.7156ZM50.8138 73.6109L55.9764 107.468L68.9375 81.0974C69.3341 80.3384 69.9899 79.7487 70.7844 79.4367L136.961 20.2356L50.8138 73.6109ZM78.8452 81.9008L113.375 96.6421L146.7 21.1982L78.8452 81.9008Z" fill="#333333"/>
</svg>
