<svg width="278" height="168" viewBox="0 0 278 168" fill="none" xmlns="http://www.w3.org/2000/svg">
<g clip-path="url(#clip0_0_84)">
<path d="M127.596 72.5877C127.489 72.5877 127.371 72.5751 127.265 72.5374C126.816 72.3863 126.509 71.9205 126.52 71.4169L127.005 52.886L110.614 59.1049C110.165 59.2812 109.668 59.1049 109.385 58.7021C109.101 58.2866 109.113 57.7327 109.408 57.3299L120.021 42.6385L103.334 37.4015C102.873 37.263 102.566 36.8098 102.566 36.3063C102.566 35.8027 102.885 35.3495 103.334 35.211L120.021 29.974L109.408 15.2827C109.113 14.8798 109.113 14.3259 109.385 13.9105C109.668 13.495 110.165 13.3314 110.614 13.5076L127.005 19.7266L126.52 1.19558C126.509 0.692025 126.804 0.226233 127.265 0.0751647C127.714 -0.0884921 128.21 0.100343 128.482 0.515779L138.315 15.8114L148.147 0.50319C148.419 0.0877537 148.915 -0.101081 149.364 0.0625757C149.813 0.213644 150.12 0.679436 150.109 1.183L149.624 19.714L166.015 13.495C166.464 13.3188 166.961 13.495 167.244 13.8979C167.528 14.3133 167.516 14.8672 167.221 15.2701L156.608 29.9614L173.295 35.1984C173.756 35.3369 174.063 35.7901 174.063 36.2937C174.063 36.7972 173.744 37.2504 173.295 37.3889L156.608 42.6259L167.221 57.3173C167.516 57.7201 167.516 58.274 167.244 58.6895C166.961 59.1049 166.464 59.2686 166.015 59.0923L149.624 52.8734L150.109 71.4044C150.12 71.9079 149.825 72.3737 149.364 72.5248C148.915 72.6758 148.419 72.4996 148.147 72.0842L138.315 56.7885L128.482 72.0842C128.281 72.3989 127.939 72.5877 127.596 72.5877ZM128.116 50.1038C128.34 50.1038 128.565 50.1793 128.742 50.3178C129.026 50.5444 129.191 50.8969 129.179 51.2746L128.754 67.5899L137.416 54.1323C137.617 53.8175 137.948 53.6287 138.303 53.6287C138.657 53.6287 138.988 53.8175 139.189 54.1323L147.851 67.5899L147.426 51.2746C147.426 50.8969 147.58 50.5444 147.863 50.3178C148.147 50.0912 148.525 50.0408 148.856 50.1667L163.285 55.6429L153.938 42.7141C153.725 42.4119 153.654 42.0217 153.772 41.6566C153.878 41.2915 154.15 41.0145 154.493 40.9138L169.194 36.3063L154.493 31.6987C154.15 31.598 153.878 31.3084 153.772 30.9559C153.666 30.5909 153.725 30.2006 153.938 29.8985L163.285 16.9696L148.856 22.4458C148.525 22.5717 148.147 22.5213 147.863 22.2947C147.58 22.0681 147.414 21.7156 147.426 21.338L147.851 5.02264L139.189 18.4803C138.988 18.795 138.657 18.9838 138.303 18.9838C137.948 18.9838 137.617 18.795 137.416 18.4803L128.754 5.02264L129.179 21.338C129.179 21.7156 129.026 22.0681 128.742 22.2947C128.459 22.5213 128.08 22.5717 127.749 22.4458L113.32 16.9696L122.668 29.8985C122.881 30.2006 122.951 30.5909 122.833 30.9559C122.715 31.321 122.455 31.598 122.112 31.6987L107.411 36.3063L122.112 40.9138C122.455 41.0145 122.727 41.3041 122.833 41.6566C122.94 42.0091 122.881 42.4119 122.668 42.7141L113.32 55.6429L127.749 50.1667C127.868 50.1164 127.986 50.1038 128.104 50.1038H128.116Z" fill="white"/>
<path d="M138.22 48.0523C132.146 48.0523 127.206 42.7901 127.206 36.3194C127.206 29.8486 132.146 24.5864 138.22 24.5864C144.294 24.5864 149.234 29.8486 149.234 36.3194C149.234 42.7901 144.294 48.0523 138.22 48.0523ZM138.22 26.8776C133.339 26.8776 129.357 31.1075 129.357 36.3194C129.357 41.5312 133.327 45.7611 138.22 45.7611C143.112 45.7611 147.083 41.5312 147.083 36.3194C147.083 31.1075 143.112 26.8776 138.22 26.8776Z" fill="white"/>
<path d="M68.2828 167.836C68.0938 167.836 67.9283 167.761 67.7983 167.622C67.6683 167.484 67.5974 167.308 67.5974 167.106V155.323C67.5974 155.109 67.6683 154.933 67.7983 154.794C67.9283 154.656 68.0938 154.593 68.2828 154.593C68.5546 154.593 68.7674 154.719 68.8974 154.983L74.1326 166.087H73.6126L78.7297 154.983C78.8715 154.719 79.0724 154.593 79.3442 154.593C79.5333 154.593 79.6988 154.656 79.8169 154.794C79.9469 154.933 80.006 155.109 80.006 155.323V167.106C80.006 167.308 79.9351 167.484 79.8051 167.622C79.6751 167.761 79.5215 167.836 79.3324 167.836C79.1315 167.836 78.9661 167.761 78.8361 167.622C78.7061 167.484 78.6352 167.308 78.6352 167.106V157.299H78.9188L74.4044 167.106C74.2626 167.345 74.0617 167.459 73.8017 167.459C73.5063 167.459 73.2936 167.308 73.1636 167.018L68.6492 157.375L68.9683 157.287V167.094C68.9683 167.295 68.8974 167.471 68.7674 167.61C68.6256 167.748 68.4601 167.824 68.271 167.824L68.2828 167.836Z" fill="white"/>
<path d="M82.5823 167.836C82.3223 167.836 82.1214 167.723 82.0033 167.484C81.8851 167.257 81.8733 167.018 81.9678 166.779L86.5767 155.096C86.7067 154.756 86.9313 154.593 87.2503 154.593C87.5694 154.593 87.7703 154.756 87.9003 155.096L92.5092 166.792C92.6156 167.043 92.6038 167.27 92.4738 167.496C92.3438 167.723 92.1429 167.824 91.8947 167.824C91.7529 167.824 91.6347 167.786 91.5165 167.71C91.4102 167.635 91.3156 167.522 91.2565 167.371L87.0258 156.355H87.4985L83.2205 167.371C83.1614 167.534 83.0669 167.648 82.9605 167.723C82.8541 167.799 82.7241 167.836 82.5823 167.836ZM83.5632 164.765L84.0832 163.506H90.4648L91.0084 164.765H83.5632Z" fill="white"/>
<path d="M95.0736 167.836C94.8845 167.836 94.7191 167.761 94.5891 167.622C94.4591 167.484 94.3882 167.308 94.3882 167.106V155.323C94.3882 155.109 94.4591 154.933 94.5891 154.794C94.7191 154.656 94.8845 154.593 95.0736 154.593H101.703C101.904 154.593 102.07 154.656 102.2 154.782C102.33 154.907 102.389 155.084 102.389 155.298C102.389 155.487 102.33 155.65 102.2 155.776C102.07 155.902 101.904 155.965 101.703 155.965H95.7709V167.081C95.7709 167.282 95.7 167.459 95.57 167.597C95.4281 167.736 95.2627 167.811 95.0736 167.811V167.836Z" fill="white"/>
<path d="M103.582 167.836C103.322 167.836 103.121 167.723 103.003 167.484C102.885 167.257 102.873 167.018 102.968 166.779L107.577 155.096C107.707 154.756 107.931 154.593 108.25 154.593C108.569 154.593 108.77 154.756 108.9 155.096L113.509 166.792C113.616 167.043 113.604 167.27 113.474 167.496C113.344 167.723 113.143 167.824 112.895 167.824C112.753 167.824 112.635 167.786 112.517 167.71C112.398 167.635 112.316 167.522 112.257 167.371L108.026 156.355H108.499L104.22 167.371C104.161 167.534 104.067 167.648 103.961 167.723C103.854 167.799 103.724 167.836 103.582 167.836ZM104.563 164.765L105.083 163.506H111.465L112.008 164.765H104.563Z" fill="white"/>
<path d="M118.851 168C118.284 168 117.74 167.924 117.196 167.773C116.653 167.622 116.168 167.421 115.731 167.144C115.294 166.867 114.963 166.54 114.727 166.149C114.679 165.986 114.667 165.809 114.667 165.621C114.667 165.444 114.75 165.293 114.88 165.18C115.034 165.067 115.187 165.029 115.353 165.067C115.518 165.104 115.66 165.193 115.778 165.356C116.097 165.747 116.523 166.049 117.055 166.3C117.586 166.54 118.177 166.666 118.827 166.666C119.395 166.666 119.903 166.552 120.352 166.338C120.789 166.124 121.144 165.809 121.404 165.419C121.664 165.016 121.794 164.551 121.794 164.009C121.794 163.216 121.557 162.599 121.096 162.159C120.624 161.718 120.033 161.491 119.3 161.491H118.296C118.118 161.491 117.965 161.429 117.858 161.315C117.752 161.202 117.693 161.038 117.693 160.849C117.693 160.661 117.752 160.497 117.858 160.371C117.965 160.245 118.106 160.182 118.284 160.182H119.158C119.737 160.182 120.234 159.981 120.624 159.578C121.014 159.175 121.214 158.621 121.214 157.916C121.214 157.211 120.978 156.657 120.517 156.305C120.045 155.952 119.454 155.776 118.721 155.776C118.166 155.776 117.669 155.889 117.22 156.103C116.771 156.317 116.393 156.632 116.086 157.048C115.944 157.249 115.802 157.387 115.637 157.438C115.471 157.488 115.306 157.463 115.14 157.337C114.998 157.249 114.916 157.11 114.868 156.934C114.821 156.758 114.868 156.582 114.963 156.431C115.353 155.852 115.861 155.386 116.487 155.021C117.114 154.656 117.858 154.467 118.733 154.467C119.489 154.467 120.151 154.605 120.73 154.895C121.309 155.184 121.758 155.587 122.089 156.091C122.42 156.594 122.585 157.173 122.585 157.815C122.585 158.281 122.491 158.709 122.314 159.1C122.136 159.49 121.9 159.817 121.616 160.094C121.333 160.371 121.025 160.585 120.683 160.736C120.34 160.887 120.021 160.975 119.725 161V160.547C120.08 160.547 120.446 160.635 120.848 160.799C121.25 160.95 121.616 161.177 121.971 161.454C122.325 161.743 122.609 162.108 122.822 162.536C123.034 162.977 123.153 163.481 123.153 164.072C123.153 164.828 122.964 165.507 122.597 166.099C122.231 166.691 121.723 167.156 121.073 167.509C120.435 167.849 119.702 168.025 118.875 168.025L118.851 168Z" fill="white"/>
<path d="M126.379 167.836C126.19 167.836 126.024 167.761 125.882 167.622C125.741 167.484 125.67 167.308 125.67 167.106V155.323C125.67 155.109 125.741 154.933 125.882 154.794C126.024 154.656 126.19 154.593 126.379 154.593C126.58 154.593 126.745 154.656 126.863 154.794C126.981 154.933 127.041 155.109 127.041 155.323V165.47L134.864 154.857C135.006 154.681 135.183 154.58 135.407 154.58C135.608 154.58 135.774 154.643 135.904 154.781C136.034 154.92 136.093 155.096 136.093 155.31V167.094C136.093 167.295 136.034 167.471 135.904 167.61C135.774 167.748 135.608 167.824 135.407 167.824C135.207 167.824 135.041 167.748 134.911 167.61C134.781 167.471 134.71 167.295 134.71 167.094V156.959L126.887 167.572C126.828 167.647 126.757 167.71 126.662 167.761C126.568 167.811 126.473 167.824 126.379 167.824V167.836Z" fill="white"/>
<path d="M139.969 167.836C139.78 167.836 139.615 167.761 139.485 167.622C139.355 167.484 139.284 167.308 139.284 167.106V155.323C139.284 155.109 139.355 154.933 139.485 154.794C139.615 154.656 139.78 154.593 139.969 154.593C140.17 154.593 140.335 154.656 140.465 154.794C140.595 154.933 140.666 155.109 140.666 155.323V160.472H148.301V155.323C148.301 155.109 148.36 154.933 148.49 154.794C148.62 154.656 148.785 154.593 148.986 154.593C149.187 154.593 149.352 154.656 149.482 154.794C149.612 154.933 149.671 155.109 149.671 155.323V167.106C149.671 167.308 149.612 167.484 149.482 167.622C149.352 167.761 149.187 167.836 148.986 167.836C148.785 167.836 148.62 167.761 148.49 167.622C148.36 167.484 148.301 167.308 148.301 167.106V161.781H140.666V167.106C140.666 167.308 140.595 167.484 140.465 167.622C140.335 167.761 140.17 167.836 139.969 167.836Z" fill="white"/>
<path d="M158.227 167.836C158.038 167.836 157.873 167.761 157.731 167.622C157.589 167.484 157.518 167.308 157.518 167.106V155.323C157.518 155.109 157.589 154.933 157.731 154.794C157.873 154.656 158.038 154.593 158.227 154.593C158.428 154.593 158.594 154.656 158.712 154.794C158.83 154.933 158.889 155.109 158.889 155.323V165.47L166.713 154.857C166.854 154.681 167.032 154.58 167.256 154.58C167.457 154.58 167.622 154.643 167.752 154.781C167.882 154.92 167.942 155.096 167.942 155.31V167.094C167.942 167.295 167.882 167.471 167.752 167.61C167.622 167.748 167.457 167.824 167.256 167.824C167.055 167.824 166.89 167.748 166.76 167.61C166.63 167.471 166.559 167.295 166.559 167.094V156.959L158.736 167.572C158.676 167.647 158.606 167.71 158.511 167.761C158.416 167.811 158.322 167.824 158.227 167.824V167.836Z" fill="white"/>
<path d="M176.722 168C175.859 168 175.056 167.824 174.311 167.471C173.567 167.119 172.905 166.64 172.338 166.011C171.771 165.381 171.333 164.664 171.014 163.846C170.695 163.027 170.542 162.146 170.542 161.189C170.542 160.233 170.695 159.377 171.014 158.558C171.321 157.74 171.759 157.022 172.326 156.406C172.893 155.789 173.543 155.31 174.288 154.945C175.032 154.593 175.848 154.417 176.71 154.417C177.49 154.417 178.176 154.53 178.79 154.769C179.405 154.996 180.007 155.373 180.587 155.902C180.681 155.978 180.74 156.066 180.764 156.166C180.787 156.267 180.787 156.355 180.764 156.443C180.74 156.531 180.705 156.607 180.634 156.67C180.634 156.808 180.563 156.909 180.457 156.997C180.35 157.073 180.232 157.111 180.09 157.111C179.948 157.111 179.818 157.048 179.677 156.934C179.275 156.557 178.838 156.28 178.377 156.091C177.904 155.902 177.349 155.814 176.687 155.814C176.025 155.814 175.399 155.952 174.808 156.242C174.229 156.519 173.709 156.909 173.26 157.413C172.811 157.916 172.468 158.483 172.22 159.137C171.971 159.792 171.841 160.484 171.841 161.227C171.841 161.97 171.971 162.687 172.22 163.342C172.468 163.997 172.811 164.563 173.26 165.067C173.709 165.57 174.217 165.948 174.808 166.238C175.387 166.515 176.013 166.666 176.687 166.666C177.254 166.666 177.786 166.565 178.294 166.363C178.802 166.162 179.287 165.872 179.748 165.495C179.901 165.369 180.055 165.319 180.208 165.344C180.362 165.369 180.504 165.444 180.61 165.558C180.717 165.684 180.776 165.847 180.776 166.049C180.776 166.137 180.764 166.225 180.728 166.313C180.693 166.401 180.646 166.489 180.587 166.577C180.031 167.081 179.428 167.459 178.767 167.685C178.105 167.912 177.408 168.038 176.687 168.038L176.722 168Z" fill="white"/>
<path d="M184.12 167.836C183.931 167.836 183.765 167.761 183.635 167.622C183.505 167.484 183.435 167.308 183.435 167.106V155.323C183.435 155.109 183.505 154.933 183.635 154.794C183.765 154.656 183.931 154.593 184.12 154.593C184.321 154.593 184.486 154.656 184.616 154.794C184.746 154.933 184.817 155.109 184.817 155.323V160.472H187.358V161.781H184.817V167.106C184.817 167.308 184.746 167.484 184.616 167.622C184.486 167.761 184.321 167.836 184.12 167.836ZM192.239 167.647C192.121 167.786 191.955 167.849 191.754 167.836C191.553 167.836 191.388 167.748 191.27 167.61L186.094 161.101L190.868 154.832C190.998 154.668 191.152 154.593 191.352 154.58C191.553 154.58 191.707 154.643 191.837 154.794C191.967 154.945 192.026 155.096 192.014 155.272C192.002 155.449 191.943 155.6 191.837 155.751L187.748 161.026L192.286 166.691C192.416 166.854 192.475 167.005 192.463 167.169C192.463 167.333 192.381 167.496 192.227 167.647H192.239Z" fill="white"/>
<path d="M195.288 167.836C195.099 167.836 194.933 167.761 194.803 167.622C194.673 167.484 194.603 167.308 194.603 167.106V155.323C194.603 155.109 194.673 154.933 194.803 154.794C194.933 154.656 195.099 154.593 195.288 154.593H198.467C199.259 154.593 199.968 154.782 200.57 155.147C201.173 155.512 201.646 156.028 201.989 156.67C202.331 157.325 202.509 158.08 202.509 158.936C202.509 159.792 202.331 160.497 201.989 161.126C201.646 161.768 201.173 162.272 200.57 162.637C199.968 163.002 199.271 163.191 198.467 163.191H195.985V167.106C195.985 167.308 195.914 167.484 195.784 167.622C195.654 167.761 195.489 167.836 195.288 167.836ZM195.985 161.806H198.467C198.999 161.806 199.46 161.68 199.861 161.429C200.263 161.177 200.582 160.837 200.819 160.409C201.055 159.981 201.173 159.49 201.173 158.936C201.173 158.344 201.055 157.841 200.819 157.4C200.582 156.959 200.263 156.62 199.861 156.368C199.46 156.116 198.987 155.99 198.467 155.99H195.985V161.806Z" fill="white"/>
<path d="M124.322 121.182C124.121 121.182 123.921 121.081 123.802 120.892L122.183 118.387L120.564 120.892C120.411 121.131 120.115 121.245 119.855 121.144C119.595 121.056 119.418 120.791 119.418 120.489L119.501 117.443L116.806 118.462C116.546 118.563 116.251 118.462 116.085 118.223C115.92 117.984 115.932 117.657 116.085 117.417L117.823 115L115.081 114.144C114.809 114.056 114.632 113.804 114.632 113.502C114.632 113.2 114.809 112.948 115.081 112.86L117.823 112.004L116.085 109.587C115.92 109.348 115.908 109.021 116.085 108.781C116.251 108.542 116.534 108.442 116.806 108.542L119.501 109.562L119.418 106.515C119.418 106.213 119.583 105.949 119.855 105.861C120.115 105.773 120.411 105.873 120.564 106.113L122.183 108.618L123.802 106.113C123.956 105.873 124.251 105.76 124.511 105.861C124.771 105.949 124.949 106.213 124.949 106.515L124.866 109.562L127.56 108.542C127.82 108.442 128.116 108.542 128.281 108.781C128.447 109.021 128.435 109.348 128.281 109.587L126.544 112.004L129.286 112.86C129.558 112.948 129.735 113.2 129.735 113.502C129.735 113.804 129.558 114.056 129.286 114.144L126.544 115L128.281 117.417C128.447 117.657 128.459 117.984 128.281 118.223C128.116 118.462 127.832 118.563 127.56 118.462L124.866 117.443L124.949 120.489C124.949 120.791 124.783 121.056 124.511 121.144C124.452 121.169 124.381 121.182 124.322 121.182ZM122.195 116.536C122.408 116.536 122.597 116.65 122.715 116.826L123.649 118.273L123.601 116.524C123.601 116.31 123.696 116.096 123.861 115.97C124.027 115.844 124.251 115.806 124.441 115.882L125.989 116.473L124.984 115.088C124.854 114.912 124.819 114.686 124.89 114.472C124.961 114.258 125.114 114.094 125.303 114.031L126.875 113.54L125.303 113.049C125.102 112.986 124.949 112.822 124.89 112.608C124.831 112.394 124.866 112.168 124.984 111.992L125.989 110.607L124.441 111.198C124.24 111.274 124.027 111.236 123.861 111.11C123.696 110.984 123.601 110.77 123.601 110.556L123.649 108.807L122.715 110.254C122.479 110.619 121.912 110.619 121.675 110.254L120.742 108.807L120.789 110.556C120.789 110.77 120.694 110.984 120.529 111.11C120.363 111.236 120.151 111.274 119.95 111.198L118.402 110.607L119.406 111.992C119.536 112.168 119.572 112.394 119.501 112.608C119.43 112.822 119.276 112.986 119.087 113.049L117.515 113.54L119.087 114.031C119.288 114.094 119.442 114.258 119.501 114.472C119.56 114.686 119.524 114.912 119.406 115.088L118.402 116.473L119.95 115.882C120.139 115.806 120.363 115.844 120.529 115.97C120.694 116.096 120.789 116.31 120.789 116.524L120.742 118.273L121.675 116.826C121.793 116.65 121.982 116.536 122.195 116.536Z" fill="white"/>
<path d="M82.9605 103.582C82.8896 102.135 82.6296 100.976 82.1806 100.083C81.7433 99.1887 81.1879 98.5089 80.5143 98.0305C79.8407 97.5521 79.1907 97.2122 78.5525 97.0108C77.9144 96.7968 77.3589 96.6961 76.8862 96.6961H76.1063C76.4962 95.7519 76.8508 94.6818 77.1817 93.4733C77.5007 92.2647 77.6662 91.1317 77.6662 90.0491C77.6662 88.9664 77.418 88.0726 76.9217 87.3299C76.4253 86.5997 75.5626 86.2346 74.3336 86.2346C72.8091 86.2346 71.5092 86.8389 70.4574 88.0474C69.3938 89.256 68.4956 90.6911 67.7629 92.378C67.0184 94.0524 66.4394 95.7897 65.9903 97.5773C65.553 99.3649 65.1749 100.825 64.8794 101.983L66.9475 102.537C67.1484 101.744 67.432 100.573 67.7984 98.9999C68.1647 97.4262 68.6493 95.8526 69.2402 94.279C69.831 92.7054 70.5519 91.3457 71.4146 90.1876C72.2773 89.0294 73.2464 88.4503 74.3336 88.4503C74.3809 88.4503 74.5818 88.5132 74.9245 88.6517C75.2672 88.7776 75.4917 89.2308 75.5863 89.9861C75.6808 90.7415 75.5154 91.9123 75.0663 93.4859C74.6172 95.0595 73.66 97.3129 72.1828 100.259C72.7264 99.8937 73.3882 99.5789 74.18 99.3146C74.9718 99.0502 75.7754 98.9243 76.6144 98.9243C77.3589 98.9243 78.0444 99.0754 78.6825 99.3523C79.3207 99.6419 79.8407 100.145 80.2306 100.85C80.6206 101.555 80.8333 102.525 80.857 103.758C80.8806 104.992 80.6443 106.528 80.1597 108.366C79.7107 110.04 79.0489 111.501 78.1625 112.734C77.2762 113.968 76.2717 114.988 75.1372 115.806C74.0027 116.624 72.7618 117.216 71.4028 117.619C70.0438 118.009 68.6847 118.211 67.3021 118.211C65.9194 118.211 64.4185 117.997 62.9413 117.581L64.9385 109.952L62.8704 109.323L54.5271 142.054L56.5243 142.608L62.4332 119.784C64.0049 120.263 65.6358 120.489 67.3139 120.489C68.8856 120.489 70.4574 120.263 72.0055 119.822C73.5536 119.381 74.9954 118.676 76.3308 117.732C77.6662 116.788 78.848 115.592 79.8761 114.157C80.9161 112.709 81.6724 110.997 82.1687 109.008C82.7596 106.855 83.0196 105.055 82.9487 103.62L82.9605 103.582Z" fill="white"/>
<path d="M107.671 93.3222C107.766 93.0075 107.884 92.4536 108.002 91.6731C108.12 90.88 108.179 90.0869 108.156 89.2686C108.132 88.4503 107.978 87.7453 107.707 87.141C107.435 86.5368 106.927 86.2346 106.194 86.2346C104.811 86.2346 103.5 87.3802 102.247 89.6588C100.994 91.9374 99.576 95.2106 98.0043 99.4531C97.8034 100.032 97.2952 101.392 96.4562 103.544C95.9126 103.23 95.3571 102.965 94.7899 102.751C94.2226 102.537 93.5963 102.437 92.9109 102.437C92.0245 102.437 91.3273 102.625 90.8073 102.991C90.2873 103.356 89.9328 103.821 89.7319 104.363C89.531 104.917 89.4837 105.546 89.5783 106.251C89.6728 106.956 89.8737 107.661 90.1691 108.341C89.7792 108.442 89.3537 108.605 88.9165 108.807C88.4792 109.021 88.0538 109.361 87.6638 109.826C87.0256 110.619 86.7066 111.4 86.7066 112.193C86.7066 112.986 86.9075 113.704 87.2974 114.358C87.6874 115.013 88.1838 115.592 88.7747 116.096C89.3655 116.599 89.9092 116.977 90.4055 117.241L90.8546 117.48C90.3582 118.525 89.9328 119.369 89.5664 119.998C89.2001 120.628 88.8928 121.131 88.6447 121.496C88.3492 121.912 88.101 122.227 87.9001 122.441C87.6047 122.441 87.2856 122.327 86.9429 122.088C86.6002 121.849 86.2102 121.61 85.7966 121.345C85.383 121.081 84.9457 120.829 84.5085 120.603C84.0594 120.363 83.5985 120.25 83.1021 120.25C82.3576 120.3 81.8377 120.665 81.5186 121.345C81.1995 122.025 80.9986 122.831 80.9277 123.75C80.8568 124.669 80.8568 125.55 80.9277 126.381C80.9986 127.224 81.034 127.829 81.034 128.194C81.1286 130.56 81.2349 132.915 81.3295 135.281C81.424 137.648 81.5304 139.927 81.6249 142.13L83.7639 142.054L83.693 141.815C83.5985 139.448 83.5158 137.195 83.4685 135.042C83.4212 132.889 83.2912 130.56 83.1021 128.043C83.0076 126.683 82.9367 125.525 82.9131 124.581C82.8894 123.636 83.0667 123.083 83.4685 122.932C83.7167 122.831 83.9885 122.856 84.2839 123.007C84.5794 123.158 84.9103 123.36 85.2766 123.599C85.643 123.838 86.0684 124.065 86.5293 124.304C87.002 124.543 87.4747 124.656 87.9711 124.656C88.8101 124.606 89.6373 123.939 90.4409 122.655C91.2564 121.37 92.0836 119.86 92.9109 118.135C93.9508 118.399 95.038 118.651 96.1962 118.878C97.3543 119.117 98.1816 119.281 98.6661 119.394C98.0279 121.912 97.3898 124.404 96.7398 126.872C96.1016 129.339 95.5226 131.593 95.0026 133.645C94.4826 135.697 94.0335 137.459 93.6317 138.957C93.2418 140.455 92.9699 141.488 92.8163 142.067L94.8135 142.621C94.9553 142.042 95.2389 140.959 95.6644 139.36C96.078 137.761 96.5862 135.835 97.1771 133.582C97.7679 131.328 98.4179 128.823 99.1388 126.066C99.8479 123.309 100.581 120.489 101.313 117.606C100.675 117.606 99.8715 117.531 98.9142 117.367C97.957 117.204 96.9998 117.027 96.0307 116.813C95.0735 116.599 94.1635 116.373 93.3008 116.108C92.4381 115.844 91.7882 115.58 91.3391 115.315C90.2991 114.686 89.6492 114.056 89.3774 113.427C89.1055 112.797 89.1292 112.231 89.4483 111.74C89.7673 111.236 90.311 110.859 91.0791 110.594C91.8473 110.33 92.7218 110.229 93.7026 110.28C93.5017 110.015 93.2181 109.587 92.8518 108.983C92.4854 108.379 92.2018 107.774 92.0009 107.17C91.8 106.566 91.7527 106.025 91.8473 105.559C91.9418 105.093 92.32 104.854 92.9581 104.854C93.4545 104.854 94.0217 104.98 94.6599 105.244C95.298 105.508 95.9953 105.974 96.7634 106.654C97.5316 107.334 98.3706 108.278 99.3161 109.486C100.25 110.695 101.231 112.218 102.27 114.044C103.062 110.896 103.748 108.165 104.339 105.861C104.929 103.557 105.449 101.568 105.887 99.9188C106.324 98.2697 106.702 96.9227 106.998 95.8652C107.293 94.8203 107.518 93.9768 107.659 93.3474L107.671 93.3222ZM106.194 90.0113C106.04 90.8548 105.851 91.7738 105.603 92.7683C105.509 93.1334 105.319 93.8384 105.048 94.8958C104.776 95.9407 104.457 97.1996 104.09 98.6725C103.724 100.145 103.299 101.769 102.838 103.557C102.365 105.345 101.892 107.208 101.396 109.147C101.006 108.517 100.545 107.837 100.025 107.095C99.5051 106.364 98.9024 105.647 98.217 104.967C98.3706 104.388 98.6306 103.582 99.0324 102.525C99.4224 101.48 99.8715 100.334 100.368 99.1006C100.864 97.8668 101.384 96.6205 101.951 95.3616C102.519 94.1027 103.062 92.9571 103.582 91.9374C104.102 90.9177 104.575 90.0743 105.024 89.4196C105.461 88.765 105.816 88.4377 106.052 88.4377C106.3 88.6517 106.348 89.1679 106.206 90.0113H106.194Z" fill="white"/>
<path d="M111.737 114.245C112.67 110.305 113.71 106.755 114.845 103.582C115.979 100.41 117.173 97.7032 118.425 95.4749C119.678 93.2467 120.978 91.5094 122.302 90.2757C123.637 89.042 124.984 88.4251 126.367 88.4251C127.052 88.4251 127.702 88.5762 128.329 88.8531C128.943 89.1427 129.428 89.7721 129.77 90.7415C130.113 91.7108 130.29 93.146 130.29 95.0343C130.29 96.9227 129.995 99.4908 129.404 102.751L131.472 103.142C131.862 101.09 132.146 99.0628 132.323 97.0486C132.5 95.0343 132.441 93.2215 132.169 91.6227C131.898 90.0239 131.307 88.7272 130.397 87.7327C129.487 86.7382 128.14 86.2346 126.367 86.2346C124.594 86.2346 122.81 86.9648 121.155 88.4377C119.501 89.9106 117.976 91.8871 116.57 94.3797C115.164 96.8723 113.887 99.7804 112.729 103.116C111.571 106.453 110.555 109.977 109.669 113.704C108.286 119.419 107.411 124.14 107.045 127.866C106.679 131.593 106.679 134.551 107.045 136.754C107.411 138.957 108.073 140.506 109.042 141.4C109.999 142.293 111.099 142.734 112.328 142.734C115.081 142.734 117.433 141.525 119.383 139.108C121.333 136.691 123.164 132.965 124.89 127.929L122.893 127.136C122.006 129.654 121.144 131.769 120.305 133.468C119.465 135.168 118.615 136.54 117.752 137.56C116.889 138.58 116.015 139.322 115.128 139.763C114.242 140.204 113.308 140.43 112.328 140.43C111.146 140.43 110.271 139.801 109.704 138.542C109.137 137.283 108.853 135.495 108.853 133.192C108.853 130.888 109.101 128.118 109.598 124.895C110.094 121.673 110.803 118.11 111.737 114.233V114.245Z" fill="white"/>
<path d="M157.968 95.5629C158.109 94.6943 158.216 93.7627 158.263 92.7682C158.31 91.7736 158.216 90.842 157.968 89.9734C157.719 89.1048 157.318 88.3872 156.75 87.8081C156.183 87.229 155.332 86.9395 154.198 86.9395H148.809C147.828 86.9395 146.894 87.0653 146.043 87.3297C145.181 87.5941 144.354 88.1228 143.574 88.9033C142.782 89.6964 142.049 90.8169 141.352 92.2898C140.666 93.7627 140.016 95.6762 139.426 98.0304C139.13 99.1885 138.74 100.699 138.244 102.55C137.747 104.413 137.216 106.49 136.625 108.769C136.034 111.047 135.419 113.439 134.781 115.932C134.143 118.424 133.505 120.905 132.855 123.372C131.33 129.138 129.723 135.281 128.057 141.79L130.054 142.344C131.732 135.835 133.328 129.729 134.852 124.014C135.49 121.547 136.128 119.054 136.767 116.536C137.405 114.018 138.019 111.614 138.61 109.335C139.201 107.057 139.745 104.979 140.241 103.116C140.737 101.253 141.127 99.7425 141.423 98.5969C141.966 96.4441 142.522 94.7446 143.089 93.4857C143.656 92.2268 144.235 91.2827 144.826 90.6532C145.417 90.0238 146.043 89.6209 146.705 89.4321C147.367 89.2432 148.076 89.1551 148.809 89.1551H154.198C155.131 89.1551 155.722 89.5957 155.97 90.4895C156.219 91.3834 156.289 92.3653 156.195 93.4354C156.1 94.5054 155.923 95.5126 155.675 96.4315C155.427 97.3505 155.309 97.8667 155.309 97.9674L144.011 141.639L146.008 142.193L157.306 98.5969C157.601 97.4387 157.826 96.4316 157.968 95.5629Z" fill="white"/>
<path d="M229.76 106.062C230.197 104.438 230.351 103.066 230.197 101.971C230.056 100.863 229.335 100.322 228.058 100.322C227.373 100.322 226.841 100.636 226.475 101.266C226.109 101.895 225.801 102.55 225.553 103.23C225.459 102.499 225.234 101.769 224.891 101.064C224.549 100.359 224.099 100.007 223.568 100.007C222.776 100.007 222.043 100.762 221.346 102.285C220.661 103.809 220.07 105.798 219.573 108.265C219.077 110.733 218.675 113.54 218.356 116.687C218.037 119.835 217.824 123.032 217.73 126.293C216.796 128.03 215.839 129.742 214.846 131.442C213.865 133.141 212.849 134.664 211.821 135.999C210.781 137.333 209.753 138.428 208.713 139.259C207.685 140.103 206.668 140.518 205.688 140.518C203.868 140.518 202.674 139.259 202.107 136.742C201.539 134.224 201.599 130.888 202.296 126.746C202.591 124.807 203.04 122.78 203.619 120.691C204.258 118.223 205.097 115.693 206.137 113.099C207.165 110.506 208.264 107.963 209.422 105.47C210.58 102.978 211.75 100.624 212.932 98.3829C214.114 96.1547 215.189 94.2034 216.146 92.5164C217.103 90.8421 218.179 89.0041 219.361 87.0025L217.659 85.8191C215.981 88.5509 214.244 91.5471 212.447 94.8328C210.651 98.1059 208.949 101.505 207.354 105.017C205.758 108.53 204.328 112.055 203.076 115.605C201.823 119.142 200.925 122.541 200.381 125.789C199.743 127.048 198.928 128.534 197.947 130.233C196.966 131.933 195.914 133.557 194.803 135.067C193.693 136.59 192.546 137.875 191.364 138.919C190.183 139.964 189.048 140.493 187.973 140.493C186.897 140.493 186.011 139.989 185.349 138.995C184.687 138 184.262 136.628 184.097 134.866C183.919 133.103 183.99 131.026 184.286 128.609C184.581 126.192 185.125 123.548 185.916 120.665C186.555 118.198 187.394 115.668 188.434 113.074C189.474 110.481 190.561 107.938 191.719 105.445C192.877 102.953 194.047 100.599 195.229 98.3577C196.411 96.1295 197.474 94.1908 198.408 92.529C199.341 90.8799 200.405 89.0545 201.587 87.0654L199.885 85.882C197.616 89.6084 195.477 93.4102 193.456 97.2877C192.274 99.5411 191.093 101.946 189.911 104.489C188.729 107.032 187.606 109.637 186.555 112.319C185.491 115 184.617 117.594 183.931 120.111C182.891 124.052 182.277 127.426 182.088 130.258C181.887 133.091 182.017 135.42 182.454 137.258C182.891 139.096 183.6 140.455 184.557 141.349C185.515 142.243 186.661 142.684 187.996 142.684C189.025 142.684 190.076 142.369 191.14 141.739C192.203 141.11 193.22 140.254 194.201 139.184C195.182 138.114 196.151 136.893 197.084 135.52C198.018 134.161 198.904 132.763 199.743 131.353C199.542 135.294 200.027 138.164 201.185 139.964C202.343 141.777 203.856 142.684 205.723 142.684C206.763 142.684 207.803 142.369 208.866 141.739C209.93 141.11 210.958 140.266 211.975 139.222C212.979 138.177 213.984 136.956 214.964 135.558C215.945 134.173 216.879 132.688 217.765 131.114C217.612 133.682 217.517 135.898 217.47 137.761C217.422 139.624 217.375 140.871 217.328 141.5L219.396 141.576H219.467C219.562 138.743 219.668 136.112 219.762 133.67C219.857 131.228 219.963 128.962 220.058 126.859C221.192 124.757 222.28 122.78 223.308 120.917C224.348 119.054 225.151 117.468 225.742 116.159C226.428 114.686 227.172 113.036 227.964 111.198C228.756 109.36 229.37 107.636 229.807 106.012L229.76 106.062ZM226.026 110.506C225.364 112.055 224.643 113.641 223.887 115.265C223.119 116.889 222.374 118.462 221.63 119.986C220.885 121.509 220.223 122.868 219.632 124.077C220.176 116.788 220.826 111.463 221.594 108.102C222.362 104.74 222.965 103.066 223.402 103.066C223.792 103.066 224.076 103.544 224.253 104.476C224.43 105.42 224.608 106.314 224.809 107.157C224.903 106.994 225.08 106.654 225.329 106.138C225.577 105.609 225.849 105.068 226.144 104.489C226.439 103.909 226.758 103.406 227.101 102.953C227.444 102.512 227.763 102.285 228.058 102.285C228.448 102.285 228.602 102.663 228.496 103.431C228.401 104.186 228.129 105.181 227.68 106.377C227.231 107.585 226.688 108.958 226.014 110.506H226.026Z" fill="white"/>
<path d="M242.76 108.19C243.894 103.834 245.029 100.359 246.151 97.766C247.286 95.1727 248.349 93.171 249.366 91.7862C250.37 90.4014 251.316 89.495 252.178 89.067C253.041 88.6516 253.762 88.4376 254.353 88.4376C255.393 88.4376 256.161 88.7145 256.681 89.2684C257.201 89.8223 257.555 90.5021 257.756 91.3204C257.957 92.1387 258.04 92.9822 258.016 93.876C257.993 94.7698 257.934 95.5755 257.827 96.3183L259.895 96.633C259.99 95.8399 260.049 94.8579 260.084 93.6872C260.108 92.5038 259.943 91.3708 259.6 90.2629C259.257 89.1551 258.678 88.2109 257.863 87.4304C257.047 86.6373 255.877 86.2471 254.353 86.2471C253.313 86.2471 252.237 86.5492 251.103 87.1535C249.968 87.7578 248.822 88.8404 247.664 90.414C246.506 91.9876 245.336 94.1655 244.154 96.9477C242.972 99.7299 241.814 103.293 240.68 107.648C239.699 111.475 239.155 115.353 239.049 119.255C238.954 123.158 239.143 126.771 239.64 130.069C240.136 133.38 240.857 136.2 241.814 138.529C242.771 140.858 243.8 142.344 244.875 142.973V142.948C244.958 142.986 245.017 143.023 245.1 143.049C246.423 143.502 247.286 142.344 247.9 141.286C248.562 140.153 249.189 138.982 249.685 137.761C250.181 136.54 250.559 135.281 250.737 133.959C250.878 132.864 251.079 131.454 250.453 130.485C250.382 130.246 250.252 130.044 250.039 129.943C248.917 129.427 247.688 129.087 246.47 129.478C245.324 129.843 244.603 130.762 244.024 131.819C243.516 132.738 243.102 133.72 242.795 134.727C242.382 133.229 242.039 131.542 241.743 129.666C241.271 126.62 241.082 123.246 241.152 119.52C241.223 115.793 241.755 112.017 242.736 108.19H242.76ZM245.43 133.393C245.773 132.713 246.163 131.807 246.884 131.504C247.51 131.24 248.243 131.391 248.881 131.643C248.893 131.656 248.905 131.681 248.917 131.693C249.047 131.832 248.964 132.361 248.952 132.562C248.94 133.015 248.905 133.468 248.822 133.922C248.657 134.891 248.385 135.835 248.03 136.741C247.688 137.61 247.262 138.454 246.813 139.272C246.683 139.511 246.163 140.569 245.844 140.934C245.312 140.581 244.757 139.801 244.201 138.592C244.154 136.767 244.639 135.004 245.454 133.393H245.43Z" fill="white"/>
<path d="M275.932 97.5647C275.837 97.8291 275.767 98.0557 275.743 98.2319C275.719 98.4208 275.66 98.6348 275.554 98.8991C274.916 101.203 274.171 103.116 273.332 104.64C272.493 106.163 271.63 107.384 270.744 108.303C269.858 109.222 268.983 109.864 268.121 110.229C267.258 110.594 266.501 110.783 265.863 110.783C264.823 110.783 264.079 110.355 263.606 109.486C263.133 108.618 262.909 107.497 262.909 106.1C262.909 104.703 263.098 103.167 263.464 101.455C263.831 99.7552 264.339 98.0431 264.977 96.3436C265.615 94.6441 266.336 93.0327 267.116 91.5094C267.908 89.9861 268.711 88.7272 269.55 87.7327L268.002 86.2346C267.069 87.3928 266.135 88.8405 265.202 90.603C264.268 92.3655 263.453 94.2412 262.767 96.2303C262.082 98.2193 261.562 100.221 261.219 102.21C260.876 104.199 260.782 106.012 260.924 107.636C261.077 109.26 261.538 110.569 262.33 111.576C263.122 112.571 264.303 113.074 265.875 113.074C266.371 113.074 266.951 112.974 267.612 112.76C268.274 112.546 268.948 112.218 269.645 111.778C270.33 111.337 271.028 110.771 271.713 110.091C272.399 109.411 273.013 108.593 273.557 107.648C272.032 113.477 270.649 118.462 269.42 122.642C268.191 126.809 267.021 130.208 265.911 132.826C264.8 135.445 263.736 137.384 262.696 138.605C261.656 139.839 260.581 140.455 259.446 140.455C258.418 140.455 257.638 139.977 257.118 139.045C256.598 138.101 256.244 136.981 256.043 135.697C255.842 134.413 255.759 133.116 255.783 131.807C255.806 130.497 255.842 129.478 255.889 128.735L253.75 128.571C253.608 131.505 253.679 133.909 253.975 135.772C254.27 137.635 254.696 139.083 255.263 140.103C255.83 141.123 256.48 141.828 257.225 142.193C257.969 142.558 258.702 142.747 259.446 142.747C261.266 142.747 262.826 142.079 264.138 140.745C265.438 139.41 266.738 137.044 268.014 133.657C269.29 130.271 270.709 125.714 272.257 119.961C273.805 114.22 275.719 106.943 277.976 98.1312L275.908 97.5773L275.932 97.5647Z" fill="white"/>
<path d="M234.806 136.465C233.613 136.351 232.419 136.377 231.237 136.528C231.178 136.528 231.119 136.54 231.06 136.553L243.87 86.9397L241.802 86.3857L227.491 141.74C227.491 141.74 227.444 141.853 227.42 141.916C227.267 142.507 227.609 142.973 228.094 143.187C229.985 143.993 232.206 144.018 234.215 144.119C235.255 144.169 236.295 144.182 237.335 144.157C238.304 144.131 239.368 144.157 240.242 143.653C242.11 142.583 241.07 139.864 239.959 138.617C238.623 137.119 236.65 136.641 234.794 136.452L234.806 136.465ZM239.273 141.878C239.191 141.916 239.108 141.941 239.025 141.966C238.647 142.079 238.257 142.067 237.867 142.079C236.827 142.117 235.787 142.117 234.747 142.079C233.128 142.029 231.379 142.004 229.772 141.588L230.481 138.819C230.965 138.429 232.124 138.492 232.596 138.466C233.589 138.416 234.605 138.454 235.574 138.63C237.075 138.907 238.942 139.637 239.285 141.437C239.309 141.563 239.332 141.702 239.332 141.84C239.309 141.853 239.297 141.865 239.273 141.878Z" fill="white"/>
<path d="M248.609 85.2274C251.812 85.2274 254.412 82.4578 254.412 79.0462C254.412 75.6346 251.812 72.865 248.609 72.865C245.407 72.865 242.807 75.6346 242.807 79.0462C242.807 82.4578 245.407 85.2274 248.609 85.2274ZM248.609 75.1562C250.63 75.1562 252.261 76.9061 252.261 79.0462C252.261 81.1863 250.618 82.9362 248.609 82.9362C246.6 82.9362 244.958 81.1863 244.958 79.0462C244.958 76.9061 246.6 75.1562 248.609 75.1562Z" fill="white"/>
<path d="M59.4077 84.7742C62.6103 84.7742 65.2102 82.0047 65.2102 78.5931C65.2102 75.1814 62.6103 72.4119 59.4077 72.4119C56.2051 72.4119 53.6052 75.1814 53.6052 78.5931C53.6052 82.0047 56.2051 84.7742 59.4077 84.7742ZM59.4077 74.7031C61.4286 74.7031 63.0594 76.4529 63.0594 78.5931C63.0594 80.7332 61.4167 82.483 59.4077 82.483C57.3987 82.483 55.756 80.7332 55.756 78.5931C55.756 76.4529 57.3987 74.7031 59.4077 74.7031Z" fill="white"/>
<path d="M20.1137 142.13L18.0574 141.5C19.6292 135.709 22.0046 126.759 22.7609 123.372C10.9432 124.807 6.18063 122.365 4.37252 120.728C3.93526 120.338 3.21438 119.558 3.19075 118.752C3.19075 118.626 3.19075 118.5 3.23802 118.387C3.40346 117.795 3.76981 117.405 4.24252 117.153C3.52164 116.675 2.95439 116.146 2.67077 115.668C2.28078 115.013 2.41078 114.472 2.51714 114.207C2.76531 113.616 3.04893 113.314 5.97973 112.948C4.6916 112.244 3.53346 111.438 3.2262 110.758C3.00166 110.28 3.03711 109.738 3.30892 109.323C3.58073 108.907 4.00617 108.555 5.93246 108.404C5.50702 108.014 5.24703 107.586 5.12885 107.132C4.90431 106.264 5.28248 105.521 5.67247 105.156C5.75519 105.08 5.84973 105.017 5.94427 104.967C12.0304 102.109 22.3236 108.605 25.8926 111.098L32.475 86.0081L34.5313 86.6249L27.5471 113.238C27.4525 113.591 27.2043 113.88 26.8734 114.006C26.5426 114.132 26.1762 114.069 25.8926 113.855C22.4773 111.262 12.7867 105.181 7.45694 106.805C7.94147 107.17 9.17051 107.825 12.2904 108.505C12.6449 108.542 12.9285 108.58 13.094 108.63C13.6731 108.819 13.8976 109.323 13.9094 109.713C13.9212 110.204 13.6258 110.67 13.2004 110.834C13.0113 110.909 12.8222 110.922 12.6213 110.884C12.3731 110.834 12.1249 110.783 11.8886 110.733C10.6477 110.62 8.14237 110.544 6.44062 110.632C7.83511 111.425 9.84412 112.319 10.3759 112.369C10.3996 112.369 10.4232 112.369 10.4586 112.369C10.5059 112.369 10.5532 112.369 10.6005 112.369C11.2032 112.382 12.2077 112.407 12.2195 113.515C12.2195 113.628 12.1958 114.61 11.0613 114.686C11.0023 114.686 10.955 114.698 10.8959 114.711C10.8959 114.711 10.7304 114.711 10.5059 114.724C10.2341 114.786 9.91503 114.812 9.58413 114.837C7.79965 115 6.4288 115.139 5.4952 115.277C6.35789 115.819 7.59875 116.373 8.65053 116.423C9.99775 116.486 10.8014 116.524 10.7895 117.644C10.7895 118.374 10.3168 118.765 9.40686 118.79C8.98143 118.966 8.39054 118.953 7.68148 118.941C7.27968 118.941 6.40516 118.916 5.79064 118.991C7.14968 120.175 11.5813 122.642 23.8836 120.905C23.9072 120.905 23.919 120.905 23.9427 120.905C24.2972 120.867 24.6399 121.031 24.8644 121.32C25.3135 121.912 25.3962 122.025 22.69 132.373C21.4255 137.207 20.1019 142.067 20.0901 142.117L20.1137 142.13Z" fill="white"/>
<path d="M16.462 86.4235L11.6286 105.206L9.57231 104.602L14.453 85.8444L16.462 86.4361V86.4235ZM16.462 86.4235L11.6286 105.206C11.2268 106.641 9.2296 106.062 9.57231 104.602L14.453 85.8318L16.462 86.4235Z" fill="white"/>
<path d="M0 141.651L5.38888 121.207L7.38607 121.799L2.0681 142.256L0 141.639V141.651ZM0 141.651L5.38888 121.207C5.79068 119.822 7.72879 120.389 7.38607 121.799L2.0681 142.256L0 141.639V141.651Z" fill="white"/>
<path d="M165.956 107.069C166.783 107.069 166.783 105.697 165.956 105.697C165.129 105.697 165.129 107.069 165.956 107.069Z" fill="white"/>
<path d="M165.259 106.175C166.086 106.175 166.086 104.803 165.259 104.803C164.432 104.803 164.432 106.175 165.259 106.175Z" fill="white"/>
<path d="M165.223 106.339C166.051 106.339 166.051 104.967 165.223 104.967C164.396 104.967 164.396 106.339 165.223 106.339Z" fill="white"/>
<path d="M165.223 106.566C166.051 106.566 166.051 105.193 165.223 105.193C164.396 105.193 164.396 106.566 165.223 106.566Z" fill="white"/>
<path d="M164.656 108.769V108.492C164.656 108.391 164.644 108.303 164.597 108.227C164.573 108.139 164.526 108.064 164.467 108.001C164.408 107.938 164.337 107.887 164.254 107.862C164.172 107.824 164.089 107.799 164.006 107.799L163.829 107.824C163.723 107.862 163.628 107.913 163.545 108.001L163.439 108.139C163.38 108.253 163.356 108.366 163.356 108.492V108.769C163.356 108.869 163.368 108.958 163.415 109.033C163.439 109.121 163.486 109.197 163.545 109.26C163.604 109.323 163.675 109.373 163.758 109.398C163.841 109.436 163.923 109.461 164.006 109.461L164.183 109.436C164.29 109.398 164.384 109.348 164.467 109.26L164.573 109.121C164.633 109.008 164.656 108.895 164.656 108.769Z" fill="white"/>
<path d="M165.59 109.411C166.417 109.411 166.417 108.039 165.59 108.039C164.762 108.039 164.762 109.411 165.59 109.411Z" fill="white"/>
<path d="M166.618 113.162C166.772 113.188 166.925 113.225 167.067 113.301L166.913 113.225C167.162 113.339 167.374 113.527 167.611 113.653C167.894 113.804 168.19 113.88 168.497 113.955C168.662 113.993 168.84 113.981 168.993 113.88C169.123 113.792 169.253 113.628 169.289 113.465C169.36 113.125 169.194 112.697 168.84 112.621C168.615 112.571 168.402 112.52 168.19 112.432L168.343 112.508C168.131 112.407 167.942 112.256 167.741 112.13C167.504 111.992 167.233 111.891 166.973 111.841C166.795 111.815 166.642 111.803 166.476 111.916C166.346 112.004 166.216 112.168 166.181 112.332C166.145 112.508 166.157 112.709 166.252 112.86C166.334 112.999 166.476 113.15 166.642 113.175L166.618 113.162Z" fill="white"/>
<path d="M167.339 113.464C168.166 113.464 168.166 112.092 167.339 112.092C166.511 112.092 166.511 113.464 167.339 113.464Z" fill="white"/>
<path d="M164.16 113.981C164.987 113.981 164.987 112.608 164.16 112.608C163.332 112.608 163.332 113.981 164.16 113.981Z" fill="white"/>
<path d="M172.22 104.274C173.342 101.052 174.536 97.8918 175.871 94.7572C177.136 91.975 178.247 89.0166 180.267 86.6877C180.752 86.1841 181.461 85.6931 182.241 85.8316L182.064 85.819C184.025 85.7561 184.64 87.8962 184.545 89.5579C184.522 90.0363 184.51 90.5021 184.427 90.9553L179.086 110.859C178.885 111.677 177.821 111.916 177.337 111.261C175.8 109.386 174.205 107.497 172.503 105.785C171.617 104.879 170.281 103.809 169.171 103.708C169.206 103.708 169.277 103.632 169.301 103.607C169.324 103.569 169.312 103.582 169.301 103.632L168.922 102.512C168.993 102.575 169.064 102.65 169.123 102.739C169.383 103.104 169.265 103.456 169.372 103.859C169.466 104.274 169.655 104.728 169.844 105.131C169.974 105.407 170.151 105.659 170.211 105.999C170.281 106.314 170.069 106.666 169.762 106.692C169.655 106.692 169.561 106.679 169.513 106.666C169.324 106.704 169.159 106.666 168.993 106.616C168.095 106.465 167.091 106.188 166.228 106.389C166.346 106.427 166.559 106.238 166.653 105.987V105.244C166.689 105.357 166.713 105.521 166.713 105.584C166.713 105.672 166.713 105.861 166.689 105.924C166.689 105.987 166.653 106.062 166.653 106.125C166.772 106.654 167.28 107.069 167.729 107.472C168.473 108.089 169.348 108.63 170.234 109.134C170.624 109.323 170.719 109.864 170.411 110.204C170.116 110.481 169.915 110.418 169.643 110.355C169.513 110.33 169.194 110.204 169.052 110.166C167.989 109.788 166.795 109.335 165.684 109.272C165.495 109.26 165.034 109.297 165.058 109.398L165.271 108.19C165.365 108.366 165.413 108.819 165.33 108.945C165.33 109.146 165.472 109.373 165.625 109.612C166.571 110.909 167.906 111.903 169.182 112.885H168.686C168.627 112.923 168.473 113.024 168.426 113.25C168.391 113.477 168.485 113.641 168.532 113.691C168.556 113.741 168.627 113.792 168.651 113.804C168.32 113.678 167.953 113.565 167.611 113.49C166.854 113.339 165.862 113.087 165.212 113.527C165.153 113.578 165.153 113.615 165.141 113.666L165.058 112.696C165.117 112.785 165.176 112.898 165.212 113.011C165.235 113.087 165.247 113.2 165.259 113.276C165.271 113.376 165.306 113.401 165.365 113.502C166.559 114.736 168.367 115.164 169.974 115.68C172.007 116.259 174.122 116.662 176.238 117.015C176.852 117.128 177.254 117.795 177.089 118.437L171.121 142.268L168.958 141.651L175.02 117.845L175.871 119.268C173.72 118.827 171.57 118.336 169.442 117.657C167.422 116.952 163.829 115.781 163.569 113.54C163.593 113.641 163.64 113.741 163.699 113.817L163.616 112.848C164.786 110.821 167.552 112.017 169.088 112.822C169.159 112.86 169.23 112.911 169.289 112.961C169.372 113.062 169.466 113.162 169.431 113.452C169.383 113.678 169.242 113.792 169.171 113.83C169.017 113.93 168.816 113.93 168.674 113.83C167.682 113.288 166.689 112.734 165.732 112.042C164.704 111.274 163.309 110.229 163.427 108.655C163.415 108.769 163.427 108.958 163.51 109.109L163.723 107.9C165.294 106.603 167.374 107.862 168.899 108.542C169.182 108.681 169.738 108.983 170.021 109.109C170.069 109.121 170.022 109.109 169.998 109.109C169.868 109.109 169.773 109.109 169.572 109.297C169.407 109.474 169.372 109.688 169.419 109.889L169.762 110.317C167.894 109.486 164.574 108.378 164.692 105.672C164.692 105.76 164.692 105.836 164.739 105.974C164.739 105.999 164.739 105.231 164.739 105.231C164.881 104.854 165.164 104.602 165.377 104.501C166.145 104.136 166.902 104.426 167.599 104.652C168.367 104.967 169.123 105.206 169.773 105.697C169.785 105.71 169.809 105.722 169.821 105.735C169.62 105.697 169.395 105.81 169.336 106.024C169.312 106.125 169.312 106.15 169.312 106.238C169.312 106.289 169.277 106.238 169.242 106.201C169.206 106.163 169.135 106.112 169.1 106.075C168.414 105.42 167.823 104.778 167.327 103.935C167.327 104.048 167.457 104.237 167.563 104.325C167.599 104.363 167.185 103.204 167.185 103.204C167.587 101.127 169.608 101.178 170.991 101.933C172.101 102.487 172.929 103.129 173.957 104.186C175.718 105.999 177.313 107.925 178.897 109.902L177.148 110.305L182.3 90.3636L182.265 90.5399C182.336 89.923 182.383 89.2432 182.3 88.6515C182.276 88.3872 182.182 88.1857 182.158 88.1732C182.158 88.148 182.17 88.1857 182.194 88.1857C182.194 88.1857 182.217 88.1857 182.076 88.1857H181.898C182.099 88.1857 182.123 88.1354 182.064 88.1857C181.154 88.9537 180.575 90.1748 179.96 91.27C178.459 94.1907 177.207 97.3002 176.013 100.397C175.422 101.958 174.831 103.544 174.288 105.105L172.255 104.312L172.22 104.274Z" fill="white"/>
<path d="M157.684 141.613L157.199 129.717C157.211 128.269 156.726 123.221 157.116 121.874C157.908 118.739 160.685 119.369 162.505 121.056C162.883 121.383 163.581 121.949 164.053 121.748C164.124 121.748 164.302 121.471 164.396 121.32L167.162 116.272L169.431 117.694L166.476 122.931C165.637 124.455 163.687 125.071 161.914 123.901C161.04 123.385 160.744 122.868 159.917 122.44C159.634 122.264 159.409 122.314 159.551 122.277C159.61 122.251 159.645 122.201 159.61 122.239C159.421 122.591 159.397 123.133 159.397 123.624L159.575 129.566L159.929 141.513L157.66 141.601L157.684 141.613Z" fill="white"/>
<path d="M168.462 103.544V103.167C168.462 103.066 168.45 102.978 168.402 102.902C168.379 102.814 168.332 102.738 168.272 102.676C168.213 102.613 168.143 102.562 168.06 102.537C167.977 102.499 167.894 102.474 167.812 102.474L167.634 102.499C167.528 102.537 167.433 102.587 167.351 102.676L167.244 102.814C167.185 102.927 167.162 103.041 167.162 103.167C167.162 103.267 167.162 103.381 167.197 103.481C167.233 103.582 167.256 103.683 167.303 103.783C167.303 103.809 167.327 103.821 167.339 103.846C167.386 103.909 167.422 103.972 167.481 104.035C167.516 104.073 167.54 104.098 167.575 104.136L167.469 103.997C167.469 103.997 167.493 104.035 167.504 104.06L167.433 103.897C167.433 103.897 167.433 103.922 167.445 103.947L167.422 103.758C167.422 103.758 167.422 103.771 167.422 103.783L167.445 103.595V103.62L167.516 103.456C167.516 103.456 167.516 103.469 167.504 103.481L167.611 103.343C167.611 103.343 167.599 103.368 167.587 103.368L167.717 103.255C167.717 103.255 167.705 103.255 167.693 103.267L167.847 103.192C167.847 103.192 167.835 103.192 167.823 103.192L168.001 103.167C168.001 103.167 167.989 103.167 167.977 103.167L168.154 103.192L168.308 103.267L168.438 103.381C168.438 103.381 168.438 103.381 168.426 103.368C168.367 103.305 168.296 103.255 168.213 103.229C168.131 103.192 168.048 103.167 167.965 103.167C167.871 103.167 167.788 103.179 167.717 103.229C167.634 103.255 167.563 103.305 167.504 103.368C167.386 103.494 167.303 103.67 167.315 103.859L167.339 104.048C167.374 104.161 167.422 104.262 167.504 104.35C167.504 104.35 167.504 104.35 167.516 104.362C167.54 104.388 167.623 104.451 167.658 104.476C167.693 104.501 167.788 104.539 167.823 104.551C167.859 104.564 167.871 104.551 167.918 104.564C167.918 104.564 167.989 104.576 168.012 104.576C168.048 104.576 168.154 104.564 168.19 104.551C168.19 104.551 168.19 104.551 168.202 104.551L168.355 104.476C168.355 104.476 168.414 104.425 168.45 104.4C168.485 104.375 168.509 104.35 168.544 104.325C168.639 104.211 168.698 104.111 168.733 103.972C168.733 103.922 168.757 103.834 168.757 103.783C168.757 103.783 168.757 103.771 168.757 103.758C168.757 103.72 168.757 103.695 168.757 103.657C168.757 103.62 168.757 103.595 168.745 103.557C168.745 103.557 168.745 103.544 168.745 103.532C168.745 103.494 168.722 103.456 168.71 103.431C168.698 103.406 168.686 103.368 168.674 103.33C168.674 103.318 168.662 103.305 168.651 103.292C168.603 103.217 168.556 103.154 168.497 103.091C168.473 103.066 168.45 103.041 168.426 103.015L168.532 103.154C168.532 103.154 168.485 103.078 168.473 103.041L168.544 103.204C168.544 103.204 168.521 103.116 168.509 103.078L168.532 103.267C168.532 103.267 168.532 103.204 168.532 103.167H167.244V103.544C167.244 103.645 167.256 103.733 167.303 103.809C167.327 103.897 167.374 103.972 167.433 104.035C167.493 104.098 167.563 104.148 167.646 104.174C167.729 104.211 167.812 104.237 167.894 104.237L168.072 104.211C168.178 104.174 168.272 104.123 168.355 104.035C168.473 103.897 168.544 103.733 168.544 103.544H168.462Z" fill="white"/>
<path d="M164.195 113.855C165.023 113.855 165.023 112.482 164.195 112.482C163.368 112.482 163.368 113.855 164.195 113.855Z" fill="white"/>
<path d="M167.162 103.381C167.162 103.456 167.162 103.532 167.173 103.607C167.185 103.683 167.185 103.758 167.209 103.821C167.244 103.96 167.303 104.098 167.363 104.237C167.445 104.413 167.552 104.564 167.658 104.715C167.693 104.791 167.753 104.854 167.823 104.904C167.882 104.967 167.953 105.005 168.048 105.03C168.131 105.055 168.225 105.068 168.308 105.03C168.391 105.03 168.473 105.005 168.544 104.954C168.686 104.854 168.804 104.715 168.84 104.539L168.863 104.35C168.863 104.224 168.828 104.111 168.781 103.997C168.651 103.821 168.521 103.632 168.438 103.431L168.509 103.595C168.473 103.507 168.45 103.418 168.438 103.318L168.462 103.507C168.462 103.507 168.462 103.418 168.462 103.381C168.462 103.204 168.391 103.016 168.272 102.89C168.213 102.827 168.143 102.776 168.06 102.751C167.977 102.713 167.894 102.688 167.812 102.688C167.646 102.688 167.469 102.751 167.351 102.89C167.233 103.028 167.162 103.192 167.162 103.381Z" fill="white"/>
<path d="M168.958 106.465L170.423 107.522C170.553 107.623 170.766 107.636 170.919 107.598C171.073 107.56 171.227 107.434 171.309 107.283C171.392 107.12 171.428 106.931 171.38 106.755C171.333 106.578 171.227 106.452 171.085 106.339L169.62 105.282C169.49 105.181 169.277 105.168 169.123 105.206C168.97 105.244 168.816 105.37 168.733 105.521C168.65 105.684 168.615 105.873 168.662 106.05C168.71 106.226 168.816 106.352 168.958 106.465Z" fill="white"/>
<path d="M168.627 106.553C168.686 106.553 168.757 106.553 168.816 106.578L168.639 106.553C168.863 106.591 169.088 106.654 169.301 106.742L169.147 106.666C169.277 106.729 169.407 106.792 169.525 106.88C169.667 106.969 169.868 106.994 170.021 106.956C170.175 106.918 170.329 106.792 170.411 106.641C170.494 106.478 170.53 106.289 170.482 106.112C170.435 105.936 170.329 105.798 170.187 105.697C169.714 105.382 169.182 105.219 168.627 105.181C168.473 105.181 168.284 105.269 168.166 105.382C168.048 105.496 167.965 105.697 167.977 105.873C167.989 106.05 168.036 106.238 168.166 106.364C168.296 106.49 168.45 106.553 168.627 106.566V106.553Z" fill="white"/>
<path d="M168.603 105.785L169.915 107.069C170.045 107.195 170.199 107.271 170.376 107.271C170.53 107.271 170.719 107.195 170.837 107.069C170.955 106.943 171.038 106.767 171.026 106.578C171.014 106.389 170.967 106.213 170.837 106.087L169.525 104.803C169.395 104.677 169.241 104.602 169.064 104.602C168.911 104.602 168.721 104.677 168.603 104.803C168.485 104.929 168.402 105.105 168.414 105.294C168.426 105.483 168.473 105.659 168.603 105.785Z" fill="white"/>
<path d="M170.565 107.459C171.392 107.459 171.392 106.087 170.565 106.087C169.738 106.087 169.738 107.459 170.565 107.459Z" fill="white"/>
<path d="M52.4116 118.349C51.3007 122.466 48.4763 132.877 47.4245 136.855C47.0463 138.278 46.3609 140.858 45.9946 142.256L45.8882 142.646C45.8882 142.784 45.7346 142.885 45.9591 143.087L43.5956 142.394L50.1189 117.682L52.4116 118.362V118.349ZM52.2934 118.311L45.9473 143.074L43.5837 142.382C43.8674 142.331 43.7965 142.168 43.8555 142.042L43.9501 141.651C44.0683 141.173 44.411 139.826 44.541 139.335C45.9827 133.745 48.5708 123.334 49.9889 117.632L52.2816 118.311H52.2934Z" fill="white"/>
<path d="M32.8888 139.826C32.617 139.801 32.3097 139.687 32.0497 139.763C32.0497 139.763 32.0261 139.776 32.0616 139.813L32.0852 139.838C32.5815 140.141 33.2552 139.687 33.2788 139.121L31.7543 139.637C31.6243 139.524 31.3643 139.385 31.0689 139.297C30.0762 138.995 28.8944 139.008 27.8663 139.108C27.5945 139.045 27.2872 139.045 27.1099 139.196C26.9681 139.322 26.8736 139.813 26.8972 140.027V140.392L26.8381 140.543C26.7909 140.644 26.7909 140.657 26.779 140.644C26.7672 140.619 26.7554 140.657 26.8381 140.745C27.7954 141.488 29.4617 141.588 30.6671 141.626C31.1516 141.651 31.6834 141.727 32.1443 141.614C32.3806 141.538 32.6288 141.437 32.6997 141.198C32.7824 140.959 32.7234 140.657 32.6879 140.418C32.4515 137.321 32.0734 132.776 31.7779 129.629C31.6361 126.809 30.3007 120.716 34.366 120.514C35.3587 120.565 36.1387 121.005 36.9068 121.622C37.2614 122.126 37.7577 122.818 38.3131 122.793C38.8331 122.717 39.3886 122.088 39.7667 121.584C40.5821 120.464 41.173 119.193 41.7285 117.871C42.3548 116.36 46.491 105.886 47.0937 104.275C47.4246 104.388 48.1455 104.564 48.4173 104.766C50.6508 106.427 52.0926 109.021 53.5934 111.362L52.8962 110.871C52.7426 110.833 52.518 110.846 52.3053 110.947C52.069 111.06 51.9271 111.236 51.8562 111.362C51.8444 111.387 51.8208 111.425 51.8326 111.413C51.9153 111.211 51.9508 111.06 52.0217 110.871C53.168 107.145 54.1607 103.318 55.0825 99.5285C55.567 97.4891 56.0279 95.4497 56.4179 93.4103C56.6897 91.7737 57.0915 90.049 56.9615 88.4377C57.0324 88.5887 57.1033 88.6643 57.2569 88.7776C57.4697 88.916 57.7296 88.9538 57.9424 88.8657H57.2688C57.2688 88.8657 57.3515 88.9035 57.3751 88.9035C56.3233 89.1175 55.437 90.3512 54.7398 91.3709C53.8653 92.7053 53.1326 94.2034 52.5062 95.7519C51.2535 98.8865 50.0599 102.16 49.0082 105.408L46.9755 104.539C47.6609 102.978 48.3109 101.392 48.9254 99.7929C50.3554 96.1547 51.5372 92.2018 53.818 89.0293C54.7634 87.783 56.0633 86.3479 57.7296 86.499C57.7769 86.499 57.8478 86.5241 57.8951 86.5367H57.2215C57.8478 86.2975 58.6751 86.6374 58.9587 87.2543C59.2423 87.7453 59.2778 88.4754 59.2778 88.9538C59.0769 92.7809 58.0487 96.4442 57.1978 100.12C56.2288 103.972 55.1888 107.825 53.9834 111.601C53.8889 111.891 53.7825 112.218 53.6407 112.495C53.558 112.659 53.4044 112.848 53.1444 112.974C52.9317 113.074 52.6953 113.087 52.5417 113.062L52.0926 112.986C51.3244 111.69 50.5327 110.393 49.67 109.184C48.9727 108.253 48.2637 107.233 47.3537 106.591C47.3773 106.591 47.3301 106.591 47.4364 106.616C47.4364 106.616 48.6182 105.974 48.6182 105.987C47.1292 110.317 45.5928 114.648 43.9265 118.916C43.572 119.847 43.0639 120.917 42.5675 121.811C40.8303 125.172 37.6041 127.136 35.1224 123.246L35.3587 123.511C35.2878 123.448 35.1105 123.334 34.9924 123.271C34.8033 123.158 34.2715 122.969 34.2006 123.045C34.1178 123.095 34.0588 123.221 33.9997 123.372C33.6451 124.417 33.7633 125.751 33.8224 126.872C33.9169 128.609 34.1533 133.141 34.236 134.916C34.3187 136.704 34.4487 138.491 34.5551 140.279L34.5196 140.065C34.8624 141.261 34.4133 142.721 33.3497 143.288C32.5106 143.791 31.5298 143.766 30.608 143.691C29.3317 143.691 25.4555 143.791 24.6637 141.299C24.4982 140.732 24.5691 140.166 24.6991 139.75L24.64 140.254C24.4628 138.013 25.94 136.377 28.0317 136.603C29.0599 136.666 31.9079 136.918 33.0779 138.441L31.5534 138.957C31.6007 138.328 32.357 137.875 32.8652 138.277C33.1724 138.58 33.1842 139.02 33.3024 139.41L32.9006 139.864L32.8888 139.826Z" fill="white"/>
<path d="M32.097 139.687C32.1561 139.738 32.2152 139.776 32.2743 139.826L32.1443 139.713C32.2979 139.851 32.4397 140.002 32.5697 140.166L32.4633 140.027C32.5933 140.204 32.6997 140.392 32.7824 140.606L32.7115 140.443C32.7942 140.644 32.8415 140.858 32.877 141.085L32.8533 140.896C32.8533 140.971 32.8651 141.047 32.877 141.123C32.8888 141.475 33.1606 141.828 33.5269 141.815C33.8578 141.802 34.1887 141.513 34.1769 141.123C34.1533 140.606 34.0233 140.103 33.7751 139.65C33.6569 139.436 33.5151 139.222 33.3497 139.033C33.1724 138.831 32.9597 138.668 32.747 138.504C32.617 138.403 32.3924 138.391 32.2506 138.429C32.1088 138.466 31.9434 138.592 31.8606 138.743C31.7779 138.907 31.7425 139.096 31.7897 139.272C31.837 139.448 31.9434 139.574 32.0852 139.687H32.097Z" fill="white"/>
<path d="M25.3608 140.455C25.3608 141.009 25.5736 141.551 25.9281 141.954C26.0345 142.079 26.2235 142.155 26.389 142.155C26.5544 142.155 26.7317 142.079 26.8499 141.954C26.968 141.828 27.0508 141.651 27.039 141.463C27.0271 141.274 26.968 141.11 26.8499 140.972C26.8144 140.934 26.7908 140.896 26.7553 140.858L26.8617 140.997C26.7908 140.896 26.7199 140.783 26.6726 140.657L26.7435 140.821C26.6962 140.695 26.6608 140.569 26.649 140.443L26.6726 140.632C26.6726 140.632 26.6726 140.518 26.6726 140.455C26.6726 140.279 26.6017 140.09 26.4835 139.964C26.3772 139.851 26.1881 139.75 26.0226 139.763C25.8572 139.776 25.6799 139.826 25.5617 139.964C25.4436 140.103 25.3727 140.267 25.3727 140.455H25.3608Z" fill="white"/>
<path d="M25.4435 140.279C25.3726 140.518 25.3844 140.758 25.4317 140.997C25.4435 141.085 25.479 141.173 25.5144 141.249C25.5499 141.324 25.5853 141.425 25.6326 141.5C25.7272 141.651 25.8453 141.802 25.9753 141.928C26.1053 142.054 26.259 142.168 26.4008 142.281C26.4717 142.331 26.5544 142.356 26.6371 142.356C26.7198 142.382 26.8144 142.369 26.8971 142.356C27.0507 142.319 27.2044 142.193 27.2871 142.042C27.3698 141.878 27.4053 141.689 27.358 141.513L27.2871 141.349C27.228 141.249 27.1571 141.16 27.0507 141.097C27.0035 141.06 26.9562 141.022 26.9089 140.984L27.0389 141.097C26.9089 140.984 26.7789 140.871 26.6844 140.732L26.7908 140.871C26.7435 140.795 26.6962 140.72 26.6608 140.644L26.7317 140.808C26.708 140.732 26.6844 140.657 26.6726 140.581L26.6962 140.77C26.6962 140.77 26.6962 140.657 26.6962 140.594L26.6726 140.783C26.6726 140.783 26.6844 140.707 26.6962 140.669C26.7435 140.506 26.708 140.292 26.6253 140.141C26.5426 139.99 26.389 139.864 26.2353 139.826C26.0699 139.788 25.8808 139.801 25.739 139.902C25.5972 140.002 25.4908 140.141 25.4435 140.317V140.279Z" fill="white"/>
<path d="M26.0936 141.463C26.9208 141.463 26.9208 140.09 26.0936 140.09C25.2663 140.09 25.2663 141.463 26.0936 141.463Z" fill="white"/>
<path d="M26.7909 139.297C26.7909 139.297 26.8146 139.259 26.8264 139.247L26.72 139.385C26.7909 139.297 26.8618 139.209 26.9446 139.146L26.8146 139.259C26.9327 139.159 27.0627 139.083 27.1927 139.033L27.0391 139.108C27.2873 138.995 27.5354 138.945 27.7954 138.907L27.6182 138.932C27.7363 138.92 27.8545 138.907 27.9727 138.894C28.15 138.869 28.3036 138.831 28.4336 138.693C28.54 138.58 28.6345 138.378 28.6227 138.202C28.6109 138.026 28.5636 137.837 28.4336 137.711C28.3154 137.598 28.15 137.497 27.9727 137.51C27.5591 137.56 27.1218 137.598 26.7318 137.749C26.5428 137.824 26.3537 137.912 26.1882 138.038C25.9755 138.202 25.8101 138.378 25.6564 138.617C25.5619 138.756 25.5501 138.995 25.5855 139.146C25.621 139.297 25.7392 139.473 25.881 139.562C26.0346 139.65 26.2119 139.687 26.3773 139.637C26.5428 139.587 26.6609 139.473 26.7673 139.322L26.7909 139.297Z" fill="white"/>
</g>
<defs>
<clipPath id="clip0_0_84">
<rect width="278" height="168" fill="white"/>
</clipPath>
</defs>
</svg>
