<svg width="355" height="355" viewBox="0 0 355 355" fill="none" xmlns="http://www.w3.org/2000/svg">
<g clip-path="url(#clip0_0_178)">
<path d="M355 0H0V355H355V0Z" fill="white"/>
<path d="M354.814 0.185669H0.185547V354.814H354.814V0.185669Z" fill="#13132C" stroke="white" stroke-width="0.16" stroke-miterlimit="10"/>
<path d="M166.084 181.062L155.823 175.423L145.359 180.679L147.551 169.182L139.32 160.858L150.933 159.385L156.31 148.984L161.293 159.576L172.848 161.473L164.315 169.489L166.084 181.062Z" fill="#FCC53B"/>
<path d="M155.985 173.672C159.884 173.672 163.045 170.511 163.045 166.612C163.045 162.713 159.884 159.553 155.985 159.553C152.087 159.553 148.926 162.713 148.926 166.612C148.926 170.511 152.087 173.672 155.985 173.672Z" fill="#F48F31" stroke="#F89D55" stroke-width="2.21" stroke-miterlimit="10"/>
<path d="M214.85 225.976L204.589 220.338L194.125 225.599L196.317 214.096L188.086 205.772L199.699 204.299L205.076 193.898L210.065 204.49L221.614 206.387L213.081 214.404L214.85 225.976Z" fill="#FCC53B"/>
<path d="M204.752 218.586C208.65 218.586 211.811 215.425 211.811 211.527C211.811 207.628 208.65 204.467 204.752 204.467C200.853 204.467 197.692 207.628 197.692 211.527C197.692 215.425 200.853 218.586 204.752 218.586Z" fill="#F48F31" stroke="#F89D55" stroke-width="2.21" stroke-miterlimit="10"/>
<path d="M114.331 106.181C114.331 106.181 108.362 252.033 120.207 267.166C134.302 285.183 233.383 274.835 233.383 274.835C233.383 274.835 236.91 275.601 244.347 265.635C245.913 246.47 250.223 108.484 244.347 106.187C242.386 108.872 244.741 261.035 239.648 264.104C237.688 268.321 232.206 270.618 232.206 270.618C232.206 270.618 139.39 280.583 125.683 267.166C124.116 266.018 113.542 243.784 116.674 180.157C116.674 177.471 115.358 106.454 117.109 106.894C124.43 108.727 144.361 113.467 154.663 113.467C155.446 113.084 199.31 113.849 205.575 113.084C211.84 112.318 240.779 106.187 240.779 106.187C240.779 106.187 204.618 121.216 179.64 117.341C177.854 117.26 129.209 116.918 121.767 111.552L117.852 109.638L114.325 106.187L114.331 106.181Z" fill="white" stroke="white" stroke-width="0.58" stroke-miterlimit="10"/>
<path d="M134.691 262.949C134.691 262.949 155.742 257.433 179.872 258.657C184.275 259.191 199.171 259.498 229.195 262.949C229.329 261.801 197.738 253.367 175.418 254.515C174.634 254.515 137.429 257.584 134.691 262.949Z" fill="white" stroke="white" stroke-width="0.58" stroke-miterlimit="10"/>
<path d="M117.463 103.501C117.463 103.501 122.945 101.97 127.643 98.9011C132.342 95.8326 127.643 87.3462 127.643 87.3462L129.732 82.6825C129.732 82.6825 162.499 88.1757 178.556 85.49C180.905 85.8729 215.999 83.7092 230.564 82.6825C231.893 86.7662 231.817 88.9414 231.817 88.9414L229.201 93.0947C229.201 93.0947 225.941 98.5415 231.817 99.6842C237.693 100.827 240.779 103.507 240.779 103.507C240.779 103.507 221.243 102.358 225.158 97.7584C225.158 95.0727 229.857 88.5586 227.902 87.41C225.158 87.41 131.17 94.6899 131.953 86.2615C133.131 90.0957 134.302 96.227 132.736 95.4613C131.953 96.6099 134.302 103.13 117.463 103.513V103.501Z" fill="white" stroke="white" stroke-width="0.58" stroke-miterlimit="10"/>
<path d="M129.819 82.8565C129.819 82.8565 159.205 76.1278 230.605 81.476C229.369 79.9794 167.453 69.6252 129.819 82.8565Z" fill="white" stroke="white" stroke-width="0.59" stroke-miterlimit="10"/>
</g>
<defs>
<clipPath id="clip0_0_178">
<rect width="355" height="355" fill="white"/>
</clipPath>
</defs>
</svg>
