<svg width="355" height="355" viewBox="0 0 355 355" fill="none" xmlns="http://www.w3.org/2000/svg">
<g clip-path="url(#clip0_0_162)">
<path d="M355 0H0V355H355V0Z" fill="white"/>
<path d="M354.814 0.185669H0.185547V354.814H354.814V0.185669Z" fill="#13132C" stroke="white" stroke-width="0.16" stroke-miterlimit="10"/>
<path d="M149.088 162.122C153.442 162.122 156.971 158.593 156.971 154.239C156.971 149.886 153.442 146.356 149.088 146.356C144.735 146.356 141.205 149.886 141.205 154.239C141.205 158.593 144.735 162.122 149.088 162.122Z" fill="#F48F31" stroke="#F89D55" stroke-width="2.47" stroke-miterlimit="10"/>
<path d="M212.136 197.947C216.489 197.947 220.019 194.418 220.019 190.064C220.019 185.711 216.489 182.181 212.136 182.181C207.782 182.181 204.253 185.711 204.253 190.064C204.253 194.418 207.782 197.947 212.136 197.947Z" fill="#F48F31" stroke="#F89D55" stroke-width="2.47" stroke-miterlimit="10"/>
<path d="M156.252 236.638C160.606 236.638 164.135 233.108 164.135 228.755C164.135 224.401 160.606 220.871 156.252 220.871C151.899 220.871 148.369 224.401 148.369 228.755C148.369 233.108 151.899 236.638 156.252 236.638Z" fill="#F48F31" stroke="#F89D55" stroke-width="2.47" stroke-miterlimit="10"/>
<path d="M160.365 171.81L148.903 165.516L137.226 171.386L139.668 158.543L130.48 149.245L143.45 147.603L149.448 135.99L155.017 147.818L167.917 149.935L158.393 158.886L160.365 171.81Z" fill="#FCC53B"/>
<path d="M149.088 163.555C153.442 163.555 156.971 160.026 156.971 155.672C156.971 151.318 153.442 147.789 149.088 147.789C144.735 147.789 141.205 151.318 141.205 155.672C141.205 160.026 144.735 163.555 149.088 163.555Z" fill="#F48F31" stroke="#F89D55" stroke-width="2.47" stroke-miterlimit="10"/>
<path d="M223.412 206.202L211.956 199.908L200.274 205.778L202.721 192.935L193.527 183.637L206.498 181.995L212.495 170.383L218.064 182.21L230.965 184.327L221.44 193.278L223.412 206.202Z" fill="#FCC53B"/>
<path d="M212.136 197.947C216.489 197.947 220.019 194.418 220.019 190.064C220.019 185.711 216.489 182.181 212.136 182.181C207.782 182.181 204.253 185.711 204.253 190.064C204.253 194.418 207.782 197.947 212.136 197.947Z" fill="#F48F31" stroke="#F89D55" stroke-width="2.47" stroke-miterlimit="10"/>
<path d="M167.529 244.892L156.072 238.598L144.39 244.463L146.838 231.626L137.644 222.327L150.614 220.686L156.612 209.073L162.181 220.901L175.081 223.018L165.557 231.968L167.529 244.892Z" fill="#FCC53B"/>
<path d="M156.252 236.638C160.606 236.638 164.135 233.108 164.135 228.755C164.135 224.401 160.606 220.871 156.252 220.871C151.899 220.871 148.369 224.401 148.369 228.755C148.369 233.108 151.899 236.638 156.252 236.638Z" fill="#F48F31" stroke="#F89D55" stroke-width="2.47" stroke-miterlimit="10"/>
<path d="M113.02 110.874C113.02 110.874 107.051 256.725 118.896 271.859C132.992 289.876 232.073 279.528 232.073 279.528C232.073 279.528 235.599 280.293 243.036 270.328C244.602 251.162 248.912 113.177 243.036 110.879C241.075 113.565 243.43 265.728 238.337 268.796C236.377 273.014 230.895 275.311 230.895 275.311C230.895 275.311 138.079 285.276 124.372 271.859C122.806 270.711 112.231 248.477 115.363 184.849C115.363 182.164 114.047 111.146 115.799 111.587C123.119 113.42 143.05 118.159 153.352 118.159C154.135 117.776 198 118.542 204.264 117.776C210.529 117.011 239.468 110.879 239.468 110.879C239.468 110.879 203.307 125.909 178.33 122.034C176.543 121.953 127.899 121.611 120.456 116.245L116.541 114.331L113.014 110.879L113.02 110.874Z" fill="white" stroke="white" stroke-width="0.58" stroke-miterlimit="10"/>
<path d="M133.386 267.636C133.386 267.636 154.437 262.12 178.567 263.344C182.97 263.878 197.866 264.185 227.89 267.636C228.024 266.488 196.433 258.054 174.112 259.202C173.329 259.202 136.124 262.271 133.386 267.636Z" fill="white" stroke="white" stroke-width="0.58" stroke-miterlimit="10"/>
<path d="M116.158 108.188C116.158 108.188 121.64 106.657 126.338 103.588C131.037 100.519 126.338 92.0331 126.338 92.0331L128.427 87.3694C128.427 87.3694 161.194 92.8626 177.251 90.1769C179.6 90.5598 214.694 88.3961 229.259 87.3694C230.588 91.453 230.512 93.6283 230.512 93.6283L227.896 97.7816C227.896 97.7816 224.636 103.228 230.512 104.371C236.388 105.514 239.474 108.194 239.474 108.194C239.474 108.194 219.938 107.045 223.853 102.445C223.853 99.7596 228.552 93.2455 226.597 92.0969C223.853 92.0969 129.865 99.3767 130.648 90.9484C131.826 94.7826 132.998 100.914 131.431 100.148C130.648 101.297 132.998 107.817 116.158 108.2V108.188Z" fill="white" stroke="white" stroke-width="0.58" stroke-miterlimit="10"/>
<path d="M128.513 87.5434C128.513 87.5434 157.9 80.8146 229.3 86.1628C228.064 84.6663 166.148 74.3121 128.513 87.5434Z" fill="white" stroke="white" stroke-width="0.59" stroke-miterlimit="10"/>
</g>
<defs>
<clipPath id="clip0_0_162">
<rect width="355" height="355" fill="white"/>
</clipPath>
</defs>
</svg>
