<svg width="355" height="355" viewBox="0 0 355 355" fill="none" xmlns="http://www.w3.org/2000/svg">
<g clip-path="url(#clip0_0_152)">
<path d="M355 0H0V355H355V0Z" fill="white"/>
<path d="M354.814 0.185669H0.185547V354.814H354.814V0.185669Z" fill="#13132C" stroke="white" stroke-width="0.16" stroke-miterlimit="10"/>
<path d="M198.249 221.138L179.988 211.103L161.368 220.46L165.266 199.989L150.614 185.169L171.287 182.552L180.853 164.037L189.728 182.889L210.297 186.265L195.105 200.534L198.249 221.138Z" fill="#FCC53B"/>
<path d="M209.229 206.631L189.194 210.221L180.22 229.369L171.276 210.726L151.246 208.261L165.754 193.144L162.349 172.471L180.255 181.775L198.179 171.467L194.745 192.332L209.229 206.631Z" fill="#FCC53B"/>
<path d="M180.273 207.977C187.212 207.977 192.837 202.351 192.837 195.412C192.837 188.473 187.212 182.848 180.273 182.848C173.334 182.848 167.708 188.473 167.708 195.412C167.708 202.351 173.334 207.977 180.273 207.977Z" fill="#F48F31" stroke="#F89D55" stroke-width="3.94" stroke-miterlimit="10"/>
<path d="M113.043 110.618C113.043 110.618 107.074 256.47 118.919 271.604C133.015 289.621 232.096 279.272 232.096 279.272C232.096 279.272 235.622 280.038 243.059 270.073C244.625 250.907 248.935 112.921 243.059 110.624C241.098 113.31 243.453 265.473 238.36 268.541C236.4 272.758 230.918 275.055 230.918 275.055C230.918 275.055 138.102 285.021 124.395 271.604C122.829 270.455 112.254 248.222 115.386 184.594C115.386 181.908 114.07 110.891 115.821 111.332C123.142 113.165 143.073 117.904 153.375 117.904C154.158 117.521 198.023 118.287 204.287 117.521C210.552 116.756 239.491 110.624 239.491 110.624C239.491 110.624 203.33 125.654 178.353 121.779C176.566 121.698 127.922 121.355 120.479 115.99L116.564 114.076L113.037 110.624L113.043 110.618Z" fill="white" stroke="white" stroke-width="0.58" stroke-miterlimit="10"/>
<path d="M133.409 267.387C133.409 267.387 154.46 261.87 178.59 263.094C182.993 263.628 197.889 263.936 227.913 267.387C228.047 266.238 196.456 257.804 174.136 258.953C173.352 258.953 136.147 262.021 133.409 267.387Z" fill="white" stroke="white" stroke-width="0.58" stroke-miterlimit="10"/>
<path d="M116.175 107.933C116.175 107.933 121.657 106.401 126.355 103.333C131.054 100.264 126.355 91.778 126.355 91.778L128.444 87.1143C128.444 87.1143 161.212 92.6075 177.268 89.9218C179.617 90.3046 214.711 88.141 229.276 87.1143C230.605 91.1979 230.529 93.3732 230.529 93.3732L227.913 97.5264C227.913 97.5264 224.653 102.973 230.529 104.116C236.405 105.259 239.491 107.939 239.491 107.939C239.491 107.939 219.955 106.79 223.87 102.19C223.87 99.5045 228.569 92.9903 226.614 91.8418C223.87 91.8418 129.882 99.1216 130.665 90.6933C131.843 94.5275 133.015 100.659 131.448 99.8931C130.665 101.042 133.015 107.562 116.175 107.944V107.933Z" fill="white" stroke="white" stroke-width="0.58" stroke-miterlimit="10"/>
<path d="M128.531 87.294C128.531 87.294 157.917 80.5653 229.317 85.9135C228.082 84.4169 166.165 74.0627 128.531 87.294Z" fill="white" stroke="white" stroke-width="0.59" stroke-miterlimit="10"/>
</g>
<defs>
<clipPath id="clip0_0_152">
<rect width="355" height="355" fill="white"/>
</clipPath>
</defs>
</svg>
