<svg width="745" height="669" viewBox="0 0 745 669" fill="none" xmlns="http://www.w3.org/2000/svg">
<g clip-path="url(#clip0_0_76)">
<path d="M304.147 313.079L587.922 521.243L173.609 505.389L143.581 648.214L113.552 791.039L-123.244 556.153L-481.914 704.178L-362.882 427.138L-750.076 326.076L-364.852 215.496L-489.009 -58.549L-127.67 80.5988L104.706 -160.073L170.066 124.028L583.983 97.9575L304.147 313.079Z" fill="#FCC53A"/>
<path d="M154.155 322.354L291.249 422.922L91.097 415.264L62.0844 553.261L-52.318 439.786L-225.586 511.3L-168.09 377.457L-355.142 328.637L-169.041 275.212L-229.018 142.823L-54.4542 210.045L57.8055 93.7794L89.3808 231.025L289.347 218.431L154.155 322.354Z" fill="#F48E31"/>
<path d="M37.071 334.989L77.0744 364.334L18.673 362.098L10.2107 402.359L-23.1665 369.253L-73.7229 390.117L-56.948 351.067L-111.521 336.824L-57.2258 321.237L-74.7255 282.606L-23.7908 302.224L8.9621 268.299L18.175 308.341L76.5167 304.668L37.071 334.989Z" fill="#FCC53A"/>
</g>
<defs>
<clipPath id="clip0_0_76">
<rect width="995.823" height="1338.21" fill="white" transform="translate(431.53 -363) rotate(71.6993)"/>
</clipPath>
</defs>
</svg>
